<svg width="1500" height="1500" viewBox="0 0 1500 1500" fill="none" xmlns="http://www.w3.org/2000/svg">
<g clip-path="url(#clip0_8_15)">
<mask id="mask0_8_15" style="mask-type:alpha" maskUnits="userSpaceOnUse" x="0" y="0" width="1500" height="1500">
<circle cx="750" cy="750" r="750" fill="#D9D9D9"/>
</mask>
<g mask="url(#mask0_8_15)">
<circle cx="740.469" cy="778.595" r="1010.37" fill="#FFF7E3"/>
<circle cx="750" cy="750" r="727.5" stroke="url(#paint0_linear_8_15)" stroke-width="45" stroke-dasharray="40 40"/>
<circle cx="750" cy="750" r="422" fill="url(#paint1_linear_8_15)"/>
<path d="M720.421 188.743C702.445 193.452 675.022 193.595 657.247 188.743C603.175 192.935 549.592 211.398 507.926 243.298C514.042 252.372 527.395 236.55 533.77 246.169C470.394 274.51 417.127 339.459 413.164 409.836C413.164 415.578 413.164 421.321 413.164 427.064C416.753 426.202 418.074 421.809 421.779 421.321C426.517 423.274 425.77 433.553 421.779 435.678C421.233 436.884 421.779 439.985 421.779 441.42C426.402 453.652 426.66 475.331 421.779 487.362C416.954 531.954 459.425 568.506 444.751 610.829C446.532 621.597 446.13 642.472 441.88 653.9C453.825 696.625 447.68 762.293 496.439 780.238C499.627 811.881 514.731 841.254 533.109 867.039C553.153 890.268 577.446 913.44 576.843 946.776C581.524 950.136 581.38 972.991 576.843 969.747C493.855 1007.65 406.071 1034.47 327.017 1081.73C326.759 1084.28 329.515 1085.17 329.889 1087.47C355.158 1097.32 379.768 1062.06 406.502 1057.84C460.947 1033.69 518.235 1012.96 571.1 986.975C582.96 1041.3 616.528 1087.73 662.99 1119.06C622.415 1127.24 603.951 1171.92 608.43 1210.94C612.364 1252.69 654.519 1268.25 688.834 1276.98C681.684 1294.44 654.203 1284.56 642.889 1299.95C643.578 1304.75 651.073 1300.44 651.504 1305.69C651.762 1308.42 655.122 1309.08 657.247 1308.56C668.532 1297.54 687.858 1297.8 703.192 1294.21C698.597 1284.39 700.521 1272.9 697.449 1262.62C639.587 1270.69 601.883 1207.78 630.742 1158.59C642.975 1137.52 667.527 1128.62 689.466 1122.56C716.602 1104.58 738.081 1121.27 731.908 1153.51C731.821 1183.69 733.831 1214.27 726.193 1242.55C717.205 1262.02 714.161 1308.42 740.522 1311.44C717.98 1252.17 760.767 1190.81 743.394 1127.67C827.042 1107.4 930.304 1054.05 941.532 958.261C1010.91 1004.69 1094.93 1023.93 1168.39 1064.5C1171.86 1060.94 1176.68 1055.77 1177 1050.14C1097.14 1007.99 1007.09 986.085 932.917 935.291C932.917 919.986 932.917 904.654 932.917 889.349C934.525 882.114 929.5 871.26 935.789 866.379C942.565 844.47 965.222 825.749 970.19 800.28C972.66 772.17 1008.12 774.266 1018.35 747.936C1030.44 722.582 1036.49 695.678 1042.04 668.256C1037.3 651.976 1038.3 625.961 1039.16 610.829C1035.32 603.077 1035.06 592.797 1024.81 590.73C1028.02 578.67 1026.64 565.376 1030.55 553.403C1024.81 545.334 1030.52 529.886 1033.42 521.818C1038.5 507.605 1035.49 491.181 1036.29 475.877C1041.32 480.7 1046.52 482.595 1044.91 473.005C1044.91 464.391 1044.91 455.777 1044.91 447.163C1045.91 438.951 1044.13 431.687 1042.04 424.192C1039.25 407.165 1029.8 393.326 1021.94 378.251C1030.87 375.983 1036.93 383.247 1044.91 383.994C1034.48 358.812 1011.34 344.312 990.348 329.438C996.091 325.619 1004.45 324.844 1007.58 317.953C996.379 319.36 987.304 313.014 975.99 315.082C971.109 291.939 959.307 270.605 944.403 251.912C934.008 264.718 950.146 285.277 941.532 297.854C906.585 231.841 830.029 188.226 760.623 183C775.412 188.57 790.229 196.955 800.825 208.842C775.498 197.759 747.931 193.308 720.421 188.743ZM708.935 203.099C748.476 210.622 796.03 212.517 826.669 243.298C835.025 245.452 839.62 253.664 846.77 257.655C843.899 245.48 829.024 238.532 826.669 226.07C823.884 220.758 820.639 215.102 815.183 211.713C853.978 224.319 889.556 251.682 912.816 286.368C923.613 300.093 930.936 317.35 932.917 335.181C939.723 338.138 931.596 349.652 938.66 352.409C942.364 335.267 956.435 322.002 955.89 303.596C962.666 313.531 961.748 328.232 961.633 340.924C982.854 339.201 1000.05 352.208 1016.19 363.894C1008.84 373.743 994.397 358.094 987.477 366.766C1014.73 380.548 1028.4 417.904 1024.81 444.292C1023.63 435.592 1014.07 429.189 1007.58 424.192C1017.31 454.227 1024.49 490.721 1016.19 521.818C1012.46 511.51 1011.31 500.599 1007.58 490.233C999.451 499.623 1010.05 518.372 1001.83 527.561C993.478 523.167 988.453 497.986 981.734 516.075C973.32 498.072 970.535 475.561 955.89 461.52C966.227 497.584 969.3 535.658 973.119 573.502C950.319 520.985 923.527 461.663 941.532 401.222C931.108 404.667 921.862 411.673 909.945 409.836C913.333 393.182 922.35 378.94 930.045 363.894C888.638 365.646 848.608 362.459 809.44 355.28C815.212 363.291 826.124 366.852 835.284 369.637C786.238 386.492 731.563 364.21 683.091 355.28C698.483 366.708 717.722 372.135 734.779 381.122C677.089 403.548 622.759 363.263 565.357 363.894C555.852 367.225 545.974 368.603 536.641 372.508C531.645 384.482 557.403 374.576 564.409 379.199C575.034 382.443 588.387 382.816 596.944 389.736C551.2 405.184 506.662 423.187 467.724 452.906C482.455 455.921 502.671 446.876 519.412 444.292C508.586 469.818 494.946 494.598 487.825 521.818C497.502 515.472 499.397 501.058 510.797 495.976C495.98 534.911 489.576 578.125 476.338 616.572C459.769 580.164 456.783 537.783 453.366 498.847C451.643 508.495 448.111 519.349 444.751 527.561C439.64 509.213 436.797 487.735 436.136 467.263C438.434 432.519 442.598 395.938 467.724 369.637C453.079 370.412 441.363 380.835 430.393 389.736C432.001 385.142 431.829 378.165 436.136 375.38C465.34 289.383 556.082 238.331 642.889 234.684C615.839 228.224 584.855 231.066 559.614 228.941C592.579 216.537 628.732 207.751 662.99 203.099C675.223 198.477 696.903 198.218 708.935 203.099ZM898.458 398.35C895.271 408.831 887.862 418.105 881.229 427.064C889.844 427.064 898.458 427.064 907.073 427.064C911.553 428.241 914.797 425.743 918.559 424.192C918.502 516.65 975.445 595.267 970.247 688.356C974.698 683.905 975.502 676.382 981.734 673.999C984.576 670.18 984.749 663.748 990.348 662.514C995.603 655.192 996.292 644.051 1004.71 639.543C1005.85 633.484 1008.67 626.162 1013.32 622.315C1011.8 615.251 1014.99 607.585 1021.94 605.087C1026.82 608.791 1021.91 617.06 1027.68 619.443C1032.33 633.57 1032.53 657.202 1027.68 671.128C1023.17 704.464 1014.99 741.131 986.816 762.35C960.656 774.065 970.764 737.771 964.504 725.683C955.488 819.633 899.435 903.62 815.183 946.776C755.627 991.77 656.041 986.314 608.43 923.805C552.837 883.233 511.716 817.48 505.054 748.654C501.436 741.648 495.262 727.09 502.182 719.94C497.502 707.565 499.856 693.179 499.311 679.742C494.688 667.51 494.429 645.831 499.311 633.8C502.096 580.422 513.554 529.111 528.027 478.748C550.827 429.878 605.185 377.504 662.99 401.222C673.328 396.656 693.055 396.312 703.192 401.222C718.928 399.872 735.813 396.139 749.137 389.736C754.794 381.467 768.319 385.975 774.981 389.736C818.313 399.872 864.114 385.946 907.073 381.122C905.924 387.181 903.11 394.503 898.458 398.35ZM464.852 630.929C468.844 635.265 469.734 642.845 473.467 648.157C478.865 654.072 479.468 665.356 484.953 671.128C489.375 677.674 489.892 693.495 484.953 699.841C488.543 720.658 488.6 742.566 493.568 763.01C469.82 750.75 467.264 718.218 462.009 694.07C456.754 668.285 447.106 630.958 461.981 610.829C460.057 618.324 465.828 623.607 464.852 630.929ZM918.559 926.677C919.191 925.959 921.431 926.677 921.431 926.677C923.642 913.382 927.806 942.268 921.431 943.905C935.731 991.11 894.381 1030.79 860.467 1058.1C824.372 1086.9 780.293 1101.66 737.651 1116.19C723.006 1086.35 694.434 1125.37 676.687 1105.36C639.472 1084.17 602.658 1049.86 594.073 1007.07C589.679 996.479 584.338 977.758 591.201 966.875C591.804 956.941 586.319 948.499 588.329 938.162C588.329 934.343 588.329 930.496 588.329 926.677C621.008 958.003 655.983 990.937 703.192 989.846C713.731 989.846 724.24 989.846 734.779 989.846C808.061 984.075 871.523 932.965 918.559 877.864C922.895 891.187 915.774 910.396 918.559 926.677Z" fill="#301E13"/>
<path d="M668.733 188.742C681.167 188.742 693.629 188.742 706.063 188.742C696.874 183.832 678.123 184.206 668.733 188.742Z" fill="#746E6B"/>
<path d="M720.421 188.743C715.626 188.743 710.859 188.742 706.063 188.742C693.629 188.742 681.167 188.742 668.733 188.742C664.914 188.742 661.066 188.743 657.247 188.743C675.022 193.595 702.445 193.452 720.421 188.743Z" fill="#020000"/>
<path d="M662.99 203.099C678.295 203.099 693.63 203.099 708.935 203.099C696.903 198.218 675.223 198.477 662.99 203.099Z" fill="#010000"/>
<path d="M436.136 375.38C492.678 282.722 598.207 238.589 706.063 249.041C690.04 237.527 670.341 228.913 651.504 223.199C709.94 214.01 772.368 223.802 826.669 243.298C796.03 212.517 748.476 210.622 708.935 203.099C693.63 203.099 678.295 203.099 662.99 203.099C628.732 207.751 592.579 216.537 559.614 228.941C584.855 231.066 615.839 228.224 642.889 234.684C556.082 238.331 465.34 289.383 436.136 375.38Z" fill="#976746"/>
<path d="M826.669 226.07C857.51 231.554 883.986 268.279 912.816 286.368C889.556 251.682 853.978 224.319 815.183 211.713C820.639 215.102 823.884 220.758 826.669 226.07Z" fill="#986846"/>
<path d="M436.136 375.38C431.829 378.165 432.001 385.142 430.393 389.736C441.363 380.835 453.079 370.412 467.724 369.637C442.598 395.938 438.434 432.519 436.136 467.263C442.942 470.22 434.815 481.735 441.879 484.492C453.854 436.339 496.985 398.724 536.641 372.508C545.974 368.603 555.852 367.225 565.357 363.894C541.781 347.499 508.729 346.955 482.081 340.925C537.273 321.141 599.04 341.643 651.504 343.796C621.467 328.262 587.841 314.049 559.614 297.855C620.548 291.509 669.365 327.602 723.293 343.796C702.33 326.31 677.549 311.034 651.504 303.597C713.845 303.282 775.871 338.714 843.898 329.439C820.897 303.109 792.756 276.147 763.495 257.656C816.13 269.945 852.8 317.064 901.33 338.053C900.468 320.136 887.115 305.579 881.229 289.241C900.64 301.128 916.463 321.341 932.917 335.181C930.936 317.35 923.613 300.093 912.816 286.368C883.986 268.279 857.51 231.554 826.669 226.07C829.024 238.532 843.899 245.48 846.77 257.655C839.62 253.664 835.025 245.452 826.669 243.298C772.368 223.802 709.94 214.01 651.504 223.199C670.341 228.913 690.04 237.527 706.063 249.041C598.207 238.589 492.678 282.722 436.136 375.38ZM754.88 297.855C729.61 302.248 702.991 281 677.348 274.884C702.445 270.606 729.064 292.169 754.88 297.855Z" fill="#72482D"/>
<path d="M565.357 363.894C622.759 363.263 677.089 403.548 734.779 381.122C717.722 372.135 698.483 366.708 683.091 355.28C731.563 364.21 786.238 386.492 835.284 369.637C826.124 366.852 815.212 363.291 809.44 355.28C848.608 362.459 888.638 365.646 930.045 363.894C922.35 378.94 913.333 393.182 909.945 409.836C921.862 411.673 931.108 404.667 941.532 401.222C923.527 461.663 950.319 520.985 973.119 573.502C969.3 535.658 966.227 497.584 955.89 461.52C970.535 475.561 973.32 498.072 981.734 516.075C988.453 497.986 993.478 523.167 1001.83 527.561C1010.05 518.372 999.451 499.623 1007.58 490.233C1011.31 500.599 1012.46 511.51 1016.19 521.818C1024.49 490.721 1017.31 454.227 1007.58 424.192C1014.07 429.189 1023.63 435.592 1024.81 444.292C1028.4 417.904 1014.73 380.548 987.477 366.766C994.397 358.094 1008.84 373.743 1016.19 363.894C1000.05 352.208 982.854 339.201 961.633 340.924C961.748 328.232 962.666 313.531 955.89 303.596C956.435 322.002 942.364 335.267 938.66 352.409C931.596 349.652 939.723 338.138 932.917 335.181C916.463 321.341 900.64 301.128 881.229 289.241C887.115 305.579 900.468 320.136 901.33 338.053C852.8 317.064 816.13 269.945 763.495 257.656C792.756 276.147 820.897 303.109 843.898 329.439C775.871 338.714 713.845 303.282 651.504 303.597C677.549 311.034 702.33 326.31 723.293 343.796C669.365 327.602 620.548 291.509 559.614 297.855C587.841 314.049 621.467 328.262 651.504 343.796C599.04 341.643 537.273 321.141 482.081 340.925C508.729 346.955 541.781 347.499 565.357 363.894Z" fill="#5A3720"/>
<path d="M677.348 274.884C702.445 270.606 729.064 292.169 754.88 297.855C729.61 302.248 702.991 281 677.348 274.884Z" fill="#916141"/>
<path d="M436.136 467.263C436.797 487.735 439.64 509.213 444.751 527.561C448.111 519.349 451.643 508.495 453.366 498.847C456.783 537.783 459.769 580.164 476.338 616.572C489.576 578.125 495.98 534.911 510.797 495.976C499.397 501.058 497.502 515.472 487.825 521.818C494.946 494.598 508.586 469.818 519.412 444.292C502.671 446.876 482.455 455.921 467.724 452.906C506.662 423.187 551.2 405.184 596.944 389.736C588.387 382.816 575.034 382.443 564.409 379.199C557.403 374.576 531.645 384.482 536.641 372.508C496.985 398.724 453.854 436.339 441.879 484.492C434.815 481.735 442.942 470.22 436.136 467.263Z" fill="#5C3820"/>
<path d="M774.981 389.736C765.218 391.172 758.039 385.315 749.137 389.736C735.813 396.139 718.928 399.872 703.192 401.222C689.782 401.222 676.4 401.222 662.99 401.222C605.185 377.504 550.827 429.878 528.027 478.748C534.2 482.595 522.082 494.655 530.897 498.847C563.518 450.408 616.671 400.963 677.347 418.45C749.825 407.137 824.918 405.557 898.458 398.35C903.11 394.503 905.924 387.181 907.073 381.122C864.114 385.946 818.313 399.872 774.981 389.736Z" fill="#E1AB81"/>
<path d="M774.981 389.736C765.218 391.172 758.039 385.315 749.137 389.736C754.794 381.467 768.319 385.975 774.981 389.736Z" fill="black"/>
<path d="M703.192 401.222C689.782 401.222 676.4 401.222 662.99 401.222C673.328 396.656 693.055 396.312 703.192 401.222Z" fill="black"/>
<path d="M528.027 478.748C513.554 529.111 502.096 580.422 499.311 633.8C499.311 649.104 499.311 664.437 499.311 679.742C499.856 693.179 497.502 707.565 502.182 719.94C500.402 730.22 506.834 738.317 505.054 748.654C511.716 817.48 552.837 883.233 608.43 923.805C628.302 913.21 642.459 954.529 668.762 949.619C718.239 966.416 781.701 959.927 818.055 920.934C854.725 904.309 907.562 858.109 922.35 809.871C940.786 747.218 955.459 679.282 943.456 611.777C936.019 549.383 896.333 491.812 907.073 427.064C898.458 427.064 889.844 427.064 881.229 427.064C887.862 418.105 895.271 408.831 898.458 398.35C824.918 405.557 749.825 407.137 677.347 418.45C616.671 400.963 563.518 450.408 530.897 498.847C522.082 494.655 534.2 482.595 528.027 478.748ZM864 582.116C867.963 586.107 875.659 585.82 881.229 587.859C878.444 596.616 866.9 600.32 866.872 607.958C867.762 613.299 884.532 621.511 872.615 622.315C873.045 623.607 871.897 627.282 872.615 628.057C876.29 631.388 881.631 632.68 884.101 636.671C875.486 636.671 866.872 636.671 858.257 636.671C853.863 639.916 848.35 639.284 843.899 642.414C830.69 646.434 817.423 649.966 803.697 645.286C792.297 635.58 776.532 651.89 766.367 642.414C731.764 649.248 738.254 606.838 757.752 593.601C771.794 531.523 892.055 534.021 909.945 596.473C895.07 591.477 881.258 580.537 864 582.116ZM665.862 593.601C677.779 600.406 680.162 612.983 677.348 625.186C680.737 619.673 683.206 613.73 683.091 625.186C685.848 645.199 683.551 665.213 680.249 685.513C681.368 701.937 657.018 722.525 677.348 734.297C706.035 746.299 736.617 720.888 763.495 737.168C763.495 731.426 763.495 725.683 763.495 719.94C764.615 712.102 755.082 710.264 752.009 705.584C758.7 704.32 763.524 709.144 769.238 711.326C805.075 743.313 747.788 757.785 731.19 779.521C701.441 806.511 672.179 763.183 648.633 748.654C635.021 729.387 654.491 713.939 665.202 699.181C675.223 680.431 679.961 658.695 680.22 636.671C676.516 639.198 675.338 646.836 668.734 645.286C662.043 645.286 655.323 645.286 648.633 645.286C644.957 644.482 638.582 647.468 637.146 642.414C626.665 651.43 609.034 649.564 596.945 645.286C590.053 644.338 580.088 643.993 576.844 636.671C572.077 641.409 558.006 647.123 550.999 642.414C573.398 627.598 595.021 605.632 625.66 610.829C624.942 609.997 625.66 607.958 625.66 607.958C614.174 607.958 602.688 607.958 591.201 607.958C575.35 610.456 565.903 624.382 553.871 630.929C559.126 623.951 562.629 614.763 571.1 610.829C560.648 616.084 546.204 618.008 533.77 607.958C535.177 601.584 544.022 602.962 545.256 596.473C538.623 595.181 536.441 603.737 530.899 605.087C536.355 542.492 653.198 538.213 665.862 593.601ZM645.761 662.514C627.441 679.253 590.972 683.446 573.972 662.514C596.284 671.3 623.449 670.094 645.761 662.514ZM858.257 665.385C835.974 676.038 808.665 677.157 786.468 665.385C807.315 666.562 837.668 667.337 858.257 665.385ZM852.514 811.823C851.537 797.581 854.036 774.524 834.566 766.6C818.256 761.517 805.592 747.505 795.082 734.297C826.928 744.777 877.755 770.189 852.514 811.823ZM622.789 742.911C610.872 765.853 578.567 780.009 582.587 808.952C566.477 776.161 596.973 753.908 622.789 742.911ZM694.578 803.209C703.192 803.209 711.807 803.209 720.422 803.209C736.56 798.931 757.609 794.538 775.039 800.28C789.77 803.898 826.756 794.078 826.67 803.209C811.852 818.628 791.809 829.97 772.11 837.665C758.154 845.418 740.609 850.069 723.293 849.151C719.474 853.371 706.811 854.061 703.192 849.151C687.255 848.749 672.179 845.045 657.247 840.537C637.692 829.31 609.235 812.512 599.816 797.466C627.182 807.66 663.651 795.629 694.578 803.209ZM754.881 866.379C735.756 899.37 692.682 891.015 668.734 869.25C693.544 866.379 727.974 873.528 754.881 866.379Z" fill="#F3CAA2"/>
<path d="M421.779 421.321C418.074 421.809 416.753 426.202 413.164 427.064C413.164 421.321 413.164 415.578 413.164 409.836C406.875 414.717 411.9 425.571 410.292 432.806C415.116 430.653 419.022 425.829 421.779 421.321Z" fill="#696562"/>
<path d="M907.073 427.064C896.333 491.812 936.019 549.383 943.456 611.777C955.459 679.282 940.786 747.218 922.35 809.871C907.562 858.109 854.725 904.309 818.055 920.934C824.085 927.653 821.299 940.373 815.183 946.776C899.435 903.62 955.488 819.633 964.504 725.683C970.764 737.771 960.656 774.065 986.816 762.35C1014.99 741.131 1023.17 704.464 1027.68 671.128C1027.68 653.9 1027.68 636.671 1027.68 619.443C1021.91 617.06 1026.82 608.791 1021.94 605.087C1014.99 607.585 1011.8 615.251 1013.32 622.315C1020.24 643.477 1019.58 666.361 1016.19 688.356C1010.22 673.798 1014.81 653.813 1004.71 639.543C996.292 644.051 995.603 655.192 990.348 662.514C1004.79 680.747 1002.67 718.045 975.99 722.812C982.738 707.852 988.367 690.279 981.734 673.999C975.502 676.382 974.698 683.905 970.247 688.356C975.445 595.267 918.502 516.65 918.559 424.192C914.797 425.743 911.553 428.241 907.073 427.064Z" fill="#E1AB80"/>
<path d="M421.779 441.42C426.402 453.652 426.66 475.331 421.779 487.362C421.779 472.058 421.779 456.725 421.779 441.42Z" fill="black"/>
<path d="M1044.91 473.005C1049.85 467.578 1049.27 452.791 1044.91 447.163C1044.91 455.777 1044.91 464.391 1044.91 473.005Z" fill="#96826B"/>
<path d="M1030.55 553.403C1030.46 542.52 1035.37 533.131 1033.42 521.818C1030.52 529.886 1024.81 545.334 1030.55 553.403Z" fill="#020000"/>
<path d="M757.752 593.601C791.177 582.317 827.244 580.537 864 582.116C881.258 580.537 895.07 591.477 909.945 596.473C892.055 534.021 771.794 531.523 757.752 593.601Z" fill="#58341E"/>
<path d="M545.256 596.473C552.292 588.691 565.27 593.199 573.971 587.859C590.023 583.178 615.552 583.006 631.403 587.859C642.458 591.276 654.519 590.96 665.862 593.601C653.198 538.213 536.355 542.492 530.899 605.087C536.441 603.737 538.623 595.181 545.256 596.473Z" fill="#57351F"/>
<path d="M757.752 593.601C738.254 606.838 731.764 649.248 766.367 642.414C788.851 601.986 841.114 598.569 872.615 628.057C871.897 627.282 873.045 623.607 872.615 622.315C847.689 592.367 799.275 601.037 772.11 622.314C792.958 590.7 837.467 593.4 866.872 607.958C866.9 600.32 878.444 596.616 881.229 587.859C875.659 585.82 867.963 586.107 864 582.116C827.244 580.537 791.177 582.317 757.752 593.601Z" fill="#D99E71"/>
<path d="M573.971 587.859C593.125 587.859 612.249 587.859 631.403 587.859C615.552 583.006 590.023 583.178 573.971 587.859Z" fill="#1F0100"/>
<path d="M545.256 596.473C544.022 602.962 535.177 601.584 533.77 607.958C546.204 618.008 560.648 616.084 571.1 610.829C596.485 596.674 643.09 595.181 657.247 625.186C648.46 618.955 637.864 610.944 625.66 607.958C625.66 607.958 624.942 609.997 625.66 610.829C639.444 617.52 653.571 628.775 662.99 642.414C665.115 641.897 668.475 642.558 668.734 645.286C675.338 646.836 676.516 639.198 680.22 636.671C681.024 632.996 678.037 626.622 683.091 625.186C683.206 613.73 680.737 619.673 677.348 625.186C680.162 612.983 677.779 600.406 665.862 593.601C654.519 590.96 642.458 591.276 631.403 587.859C612.249 587.859 593.125 587.859 573.971 587.859C565.27 593.199 552.292 588.691 545.256 596.473Z" fill="#DBA174"/>
<path d="M872.615 622.315C884.532 621.511 867.762 613.299 866.872 607.958C837.467 593.4 792.958 590.7 772.11 622.314C799.275 601.037 847.689 592.367 872.615 622.315Z" fill="#3A2315"/>
<path d="M571.1 610.829C562.629 614.763 559.126 623.951 553.871 630.929C565.903 624.382 575.35 610.456 591.201 607.958C599.644 603.45 617.419 603.048 625.66 607.958C637.864 610.944 648.46 618.955 657.247 625.186C643.09 595.181 596.485 596.674 571.1 610.829Z" fill="#503826"/>
<path d="M625.66 607.958C614.174 607.958 602.688 607.958 591.201 607.958C599.644 603.45 617.419 603.048 625.66 607.958Z" fill="#020000"/>
<path d="M766.367 642.414C771.162 642.414 775.928 642.414 780.724 642.414C781.815 633.111 792.153 626.219 800.825 625.186C801.026 632.106 799.562 639.399 803.697 645.286C817.423 649.966 830.69 646.434 843.899 642.414C842.406 636.011 848.321 631.704 846.77 625.186C853.001 625.53 860.353 628.948 858.257 636.671C866.872 636.671 875.486 636.671 884.101 636.671C881.631 632.68 876.29 631.388 872.615 628.057C841.114 598.569 788.851 601.986 766.367 642.414ZM820.926 630.928C822.218 606.436 796.489 634.977 820.926 630.928Z" fill="#362418"/>
<path d="M444.751 610.829C446.532 621.597 446.13 642.472 441.88 653.9C442.511 639.428 439.898 624.239 444.751 610.829Z" fill="#010100"/>
<path d="M484.953 699.841C484.953 690.279 484.953 680.689 484.953 671.128C479.468 665.356 478.865 654.072 473.467 648.157C465.828 653.785 475.534 668.572 467.723 673.999C465.799 659.958 463.761 645.774 464.852 630.929C465.828 623.607 460.057 618.324 461.981 610.829C447.106 630.958 456.754 668.285 462.009 694.07C467.264 718.218 469.82 750.75 493.568 763.01C488.6 742.566 488.543 720.658 484.953 699.841Z" fill="#DEAA80"/>
<path d="M576.844 636.671C580.921 633.771 585.199 627.77 591.201 628.057C595.192 632.019 594.906 639.715 596.945 645.286C609.034 649.564 626.665 651.43 637.146 642.414C637.003 637.361 641.539 633.599 640.017 628.057C645.617 630.641 650.01 635.867 648.632 642.414C653.427 642.414 658.194 642.414 662.99 642.414C653.571 628.775 639.444 617.52 625.66 610.829C595.021 605.632 573.398 627.598 550.999 642.414C558.006 647.123 572.077 641.409 576.844 636.671ZM608.43 622.314C620.347 644.481 585.343 630.612 608.43 622.314Z" fill="#2E1E14"/>
<path d="M1042.04 668.256C1040.89 649.191 1044.79 628.747 1039.16 610.829C1038.3 625.961 1037.3 651.976 1042.04 668.256Z" fill="black"/>
<path d="M820.926 630.928C822.218 606.436 796.489 634.977 820.926 630.928Z" fill="#EAE8E0"/>
<path d="M1027.68 619.443C1032.33 633.57 1032.53 657.202 1027.68 671.128C1027.68 653.9 1027.68 636.671 1027.68 619.443Z" fill="black"/>
<path d="M608.43 622.314C620.347 644.481 585.343 630.612 608.43 622.314Z" fill="#D1CCC2"/>
<path d="M1004.71 639.543C1014.81 653.813 1010.22 673.798 1016.19 688.356C1019.58 666.361 1020.24 643.477 1013.32 622.315C1008.67 626.162 1005.85 633.484 1004.71 639.543Z" fill="#A24425"/>
<path d="M680.22 636.671C679.961 658.695 675.223 680.431 665.202 699.181C654.491 713.939 635.021 729.387 648.633 748.654C675.482 749.831 701.784 773.634 728.145 756.378C753.041 755.258 794.135 743.026 769.238 711.326C763.524 709.144 758.7 704.32 752.009 705.584C755.082 710.264 764.615 712.102 763.495 719.94C784.86 756.32 737.88 734.527 721.311 746.672C699.429 771.337 677.835 729.818 654.374 742.911C647.712 730.478 653.858 717.643 662.989 708.455C663.621 715.949 661.871 741.217 677.348 734.297C657.018 722.525 681.368 701.937 680.249 685.513C683.551 665.213 685.848 645.199 683.091 625.186C678.037 626.622 681.024 632.996 680.22 636.671Z" fill="#A44529"/>
<path d="M766.367 642.414C776.532 651.89 792.297 635.58 803.697 645.286C799.562 639.399 801.026 632.106 800.825 625.186C792.153 626.219 781.815 633.111 780.724 642.414C775.928 642.414 771.162 642.414 766.367 642.414Z" fill="#E5DDCD"/>
<path d="M843.899 642.414C848.35 639.284 853.863 639.916 858.257 636.671C860.353 628.948 853.001 625.53 846.77 625.186C848.321 631.704 842.406 636.011 843.899 642.414Z" fill="#ECE7DB"/>
<path d="M576.844 636.671C580.088 643.993 590.053 644.338 596.945 645.286C594.906 639.715 595.192 632.019 591.201 628.057C585.199 627.77 580.921 633.771 576.844 636.671Z" fill="#F1EEE1"/>
<path d="M637.146 642.414C638.582 647.468 644.957 644.482 648.633 645.286C648.432 645.257 648.632 642.414 648.632 642.414C650.01 635.867 645.617 630.641 640.017 628.057C641.539 633.599 637.003 637.361 637.146 642.414Z" fill="#E3DDD2"/>
<path d="M473.467 648.157C469.734 642.845 468.844 635.265 464.852 630.929C463.761 645.774 465.799 659.958 467.723 673.999C475.534 668.572 465.828 653.785 473.467 648.157Z" fill="#9E381D"/>
<path d="M499.311 633.8C499.311 649.104 499.311 664.437 499.311 679.742C494.688 667.51 494.429 645.831 499.311 633.8Z" fill="#635746"/>
<path d="M648.633 645.286C655.323 645.286 662.043 645.286 668.734 645.286C668.475 642.558 665.115 641.897 662.99 642.414C658.194 642.414 653.427 642.414 648.632 642.414C648.632 642.414 648.432 645.257 648.633 645.286Z" fill="#A39172"/>
<path d="M573.972 662.514C596.284 671.3 623.449 670.094 645.761 662.514C627.441 679.253 590.972 683.446 573.972 662.514Z" fill="#DFA376"/>
<path d="M786.468 665.385C807.315 666.562 837.668 667.337 858.257 665.385C835.974 676.038 808.665 677.157 786.468 665.385Z" fill="#DC9B6E"/>
<path d="M981.734 673.999C988.367 690.279 982.738 707.852 975.99 722.812C1002.67 718.045 1004.79 680.747 990.348 662.514C984.749 663.748 984.576 670.18 981.734 673.999Z" fill="#A64727"/>
<path d="M484.953 671.128C489.375 677.674 489.892 693.495 484.953 699.841C484.953 690.279 484.953 680.689 484.953 671.128Z" fill="black"/>
<path d="M763.495 719.94C763.495 725.683 763.495 731.426 763.495 737.168C736.617 720.888 706.035 746.299 677.348 734.297C661.871 741.217 663.621 715.949 662.989 708.455C653.858 717.643 647.712 730.478 654.374 742.911C677.835 729.818 699.429 771.337 721.311 746.672C737.88 734.527 784.86 756.32 763.495 719.94Z" fill="#DEA276"/>
<path d="M648.633 748.654C672.179 763.183 701.441 806.511 731.19 779.521C747.788 757.785 805.075 743.313 769.238 711.326C794.135 743.026 753.041 755.258 728.145 756.378C701.784 773.634 675.482 749.831 648.633 748.654Z" fill="#E0A579"/>
<path d="M502.182 719.94C500.402 730.22 506.834 738.317 505.054 748.654C501.436 741.648 495.262 727.09 502.182 719.94Z" fill="black"/>
<path d="M852.514 811.823C877.755 770.189 826.928 744.777 795.082 734.297C805.592 747.505 818.256 761.517 834.566 766.6C854.036 774.524 851.537 797.581 852.514 811.823Z" fill="#E0A275"/>
<path d="M582.587 808.952C566.477 776.161 596.973 753.908 622.789 742.911C610.872 765.853 578.567 780.009 582.587 808.952Z" fill="#E0A275"/>
<path d="M599.816 797.466C610.211 807.057 628.617 803.496 640.017 808.952C652.939 808.234 665.258 809.153 677.348 811.823C681.167 807.602 693.83 806.913 697.449 811.823C703.996 816.245 719.818 816.762 726.164 811.823C729.983 807.602 742.647 806.913 746.265 811.823C762.604 807.602 780.58 809.182 797.953 808.952C805.563 804.157 817.509 806.138 826.67 803.209C826.756 794.078 789.77 803.898 775.039 800.28C757.609 794.538 736.56 798.931 720.422 803.209C714.794 807.574 700.005 808.148 694.578 803.209C663.651 795.629 627.182 807.66 599.816 797.466Z" fill="#95503A"/>
<path d="M657.247 840.537C658.109 836.947 662.502 835.627 662.99 831.923C653.169 827.443 636.571 823.739 640.017 808.952C628.617 803.496 610.211 807.057 599.816 797.466C609.235 812.512 637.692 829.31 657.247 840.537Z" fill="#2D1F16"/>
<path d="M694.578 803.209C703.192 803.209 711.807 803.209 720.422 803.209C714.794 807.574 700.005 808.148 694.578 803.209Z" fill="#7E1A0D"/>
<path d="M797.953 808.952C794.565 824.055 776.244 828.391 763.495 831.923C764.184 836.718 771.679 832.411 772.11 837.665C791.809 829.97 811.852 818.628 826.67 803.209C817.509 806.138 805.563 804.157 797.953 808.952Z" fill="#2A1D15"/>
<path d="M662.99 831.923C693.543 846.911 732.482 845.906 763.495 831.923C776.244 828.391 794.565 824.055 797.953 808.952C780.58 809.182 762.604 807.602 746.265 811.823C739.574 811.823 732.855 811.823 726.164 811.823C719.818 816.762 703.996 816.245 697.449 811.823C690.758 811.823 684.038 811.823 677.348 811.823C665.258 809.153 652.939 808.234 640.017 808.952C636.571 823.739 653.169 827.443 662.99 831.923Z" fill="#F5EDDA"/>
<path d="M697.449 811.823C690.758 811.823 684.038 811.823 677.348 811.823C681.167 807.602 693.83 806.913 697.449 811.823Z" fill="#801B08"/>
<path d="M746.265 811.823C739.574 811.823 732.855 811.823 726.164 811.823C729.983 807.602 742.647 806.913 746.265 811.823Z" fill="#7F1807"/>
<path d="M657.247 840.537C672.179 845.045 687.255 848.749 703.192 849.151C709.883 849.151 716.603 849.151 723.293 849.151C740.609 850.069 758.154 845.418 772.11 837.665C771.679 832.411 764.184 836.718 763.495 831.923C732.482 845.906 693.543 846.911 662.99 831.923C662.502 835.627 658.109 836.947 657.247 840.537Z" fill="#7F3C2C"/>
<path d="M703.192 849.151C709.883 849.151 716.603 849.151 723.293 849.151C719.474 853.371 706.811 854.061 703.192 849.151Z" fill="#AE8164"/>
<path d="M668.734 869.25C693.544 866.379 727.974 873.528 754.881 866.379C735.756 899.37 692.682 891.015 668.734 869.25Z" fill="#DEA073"/>
<path d="M932.917 889.349C939.206 884.468 934.181 873.614 935.789 866.379C929.5 871.26 934.525 882.114 932.917 889.349Z" fill="#9D896E"/>
<path d="M734.779 989.846C727.284 994.325 710.486 994.785 703.192 989.846C655.983 990.937 621.008 958.003 588.329 926.677C588.329 930.496 588.329 934.343 588.329 938.162C628.617 988.209 680.219 1064.04 755.081 1053.22C827.674 1045.29 876.232 979.94 918.559 926.677C915.774 910.396 922.895 891.187 918.559 877.864C871.523 932.965 808.061 984.075 734.779 989.846Z" fill="#E2AA7F"/>
<path d="M608.43 923.805C656.041 986.314 755.627 991.77 815.183 946.776C821.299 940.373 824.085 927.653 818.055 920.934C781.701 959.927 718.239 966.416 668.762 949.619C642.459 954.529 628.302 913.21 608.43 923.805Z" fill="#CC8F6B"/>
<path d="M921.431 926.677C921.431 932.419 921.431 938.162 921.431 943.905C927.806 942.268 923.642 913.382 921.431 926.677Z" fill="black"/>
<path d="M588.329 938.162C586.319 948.499 591.804 956.941 591.201 966.875C589.047 981.089 595.192 993.091 594.073 1007.07C602.658 1049.86 639.472 1084.17 676.687 1105.36C694.434 1125.37 723.006 1086.35 737.651 1116.19C780.293 1101.66 824.372 1086.9 860.467 1058.1C894.381 1030.79 935.731 991.11 921.431 943.905C921.431 938.162 921.431 932.419 921.431 926.677C921.431 926.677 919.191 925.959 918.559 926.677C876.232 979.94 827.674 1045.29 755.081 1053.22C680.219 1064.04 628.617 988.209 588.329 938.162Z" fill="#F1CAA2"/>
<path d="M576.843 946.776C581.524 950.136 581.38 972.991 576.843 969.747C576.843 962.08 576.843 954.443 576.843 946.776Z" fill="black"/>
<path d="M657.247 1308.56C859.29 1348.71 1070.29 1242.01 1168.39 1064.5C1094.93 1023.93 1010.91 1004.69 941.532 958.261C930.304 1054.05 827.042 1107.4 743.394 1127.67C760.767 1190.81 717.98 1252.17 740.522 1311.44C714.161 1308.42 717.205 1262.02 726.193 1242.55C733.831 1214.27 731.821 1183.69 731.908 1153.51C738.081 1121.27 716.602 1104.58 689.466 1122.56C667.527 1128.62 642.975 1137.52 630.742 1158.59C601.883 1207.78 639.587 1270.69 697.449 1262.62C700.521 1272.9 698.597 1284.39 703.192 1294.21C687.858 1297.8 668.532 1297.54 657.247 1308.56ZM711.807 1124.8C736.359 1159.83 729.18 1214.38 711.089 1250.42C674.362 1270.84 616.815 1239.16 625.66 1193.71C622.989 1147.6 674.792 1128.62 711.807 1124.8Z" fill="#2C2623"/>
<path d="M591.201 966.875C589.047 981.089 595.192 993.091 594.073 1007.07C589.679 996.479 584.338 977.758 591.201 966.875Z" fill="#010000"/>
<path d="M329.889 1087.47C402.396 1200.4 522.858 1281.8 651.504 1305.69C651.073 1300.44 643.578 1304.75 642.889 1299.95C654.203 1284.56 681.684 1294.44 688.834 1276.98C654.519 1268.25 612.364 1252.69 608.43 1210.94C603.951 1171.92 622.415 1127.24 662.99 1119.06C616.528 1087.73 582.96 1041.3 571.1 986.975C518.235 1012.96 460.947 1033.69 406.502 1057.84C379.768 1062.06 355.158 1097.32 329.889 1087.47Z" fill="#2B2523"/>
<path d="M703.192 989.846C713.731 989.846 724.24 989.846 734.779 989.846C727.284 994.325 710.486 994.785 703.192 989.846Z" fill="#745D45"/>
<path d="M711.807 1124.8C674.792 1128.62 622.989 1147.6 625.66 1193.71C616.815 1239.16 674.362 1270.84 711.089 1250.42C729.18 1214.38 736.359 1159.83 711.807 1124.8ZM706.063 1133.41C733.946 1170.11 720.967 1284.16 654.145 1239.88C600.849 1203.93 650.527 1124.6 706.063 1133.41Z" fill="#2D1C10"/>
<path d="M654.145 1239.88C600.849 1203.93 650.527 1124.6 706.063 1133.41C733.946 1170.11 720.967 1284.16 654.145 1239.88Z" fill="#2E2A26"/>
<path d="M720.421 188.743C702.445 193.452 675.022 193.595 657.247 188.743M720.421 188.743C747.931 193.308 775.498 197.759 800.825 208.842C790.229 196.955 775.412 188.57 760.623 183C830.029 188.226 906.585 231.841 941.532 297.854C950.146 285.277 934.008 264.718 944.403 251.912C959.307 270.605 971.109 291.939 975.99 315.082C987.304 313.014 996.379 319.36 1007.58 317.953C1004.45 324.844 996.091 325.619 990.348 329.438C1011.34 344.312 1034.48 358.812 1044.91 383.994C1036.93 383.247 1030.87 375.983 1021.94 378.251C1029.8 393.326 1039.25 407.165 1042.04 424.192C1044.13 431.687 1045.91 438.951 1044.91 447.163M720.421 188.743C715.626 188.743 710.859 188.742 706.063 188.742M657.247 188.743C603.175 192.935 549.592 211.398 507.926 243.298C514.042 252.372 527.395 236.55 533.77 246.169C470.394 274.51 417.127 339.459 413.164 409.836M657.247 188.743C661.066 188.743 664.914 188.742 668.733 188.742M413.164 409.836C413.164 415.578 413.164 421.321 413.164 427.064C416.753 426.202 418.074 421.809 421.779 421.321M413.164 409.836C406.875 414.717 411.9 425.571 410.292 432.806C415.116 430.653 419.022 425.829 421.779 421.321M421.779 421.321C426.517 423.274 425.77 433.553 421.779 435.678C421.233 436.884 421.779 439.985 421.779 441.42M421.779 441.42C426.402 453.652 426.66 475.331 421.779 487.362M421.779 441.42C421.779 456.725 421.779 472.058 421.779 487.362M421.779 487.362C416.954 531.954 459.425 568.506 444.751 610.829M444.751 610.829C446.532 621.597 446.13 642.472 441.88 653.9M444.751 610.829C439.898 624.239 442.511 639.428 441.88 653.9M441.88 653.9C453.825 696.625 447.68 762.293 496.439 780.238C499.627 811.881 514.731 841.254 533.109 867.039C553.153 890.268 577.446 913.44 576.843 946.776M576.843 946.776C581.524 950.136 581.38 972.991 576.843 969.747M576.843 946.776C576.843 954.443 576.843 962.08 576.843 969.747M576.843 969.747C493.855 1007.65 406.071 1034.47 327.017 1081.73C326.759 1084.28 329.515 1085.17 329.889 1087.47M329.889 1087.47C355.158 1097.32 379.768 1062.06 406.502 1057.84C460.947 1033.69 518.235 1012.96 571.1 986.975C582.96 1041.3 616.528 1087.73 662.99 1119.06C622.415 1127.24 603.951 1171.92 608.43 1210.94C612.364 1252.69 654.519 1268.25 688.834 1276.98C681.684 1294.44 654.203 1284.56 642.889 1299.95C643.578 1304.75 651.073 1300.44 651.504 1305.69M329.889 1087.47C402.396 1200.4 522.858 1281.8 651.504 1305.69M651.504 1305.69C651.762 1308.42 655.122 1309.08 657.247 1308.56M657.247 1308.56C668.532 1297.54 687.858 1297.8 703.192 1294.21C698.597 1284.39 700.521 1272.9 697.449 1262.62C639.587 1270.69 601.883 1207.78 630.742 1158.59C642.975 1137.52 667.527 1128.62 689.466 1122.56C716.602 1104.58 738.081 1121.27 731.908 1153.51C731.821 1183.69 733.831 1214.27 726.193 1242.55C717.205 1262.02 714.161 1308.42 740.522 1311.44C717.98 1252.17 760.767 1190.81 743.394 1127.67C827.042 1107.4 930.304 1054.05 941.532 958.261C1010.91 1004.69 1094.93 1023.93 1168.39 1064.5M657.247 1308.56C859.29 1348.71 1070.29 1242.01 1168.39 1064.5M1168.39 1064.5C1171.86 1060.94 1176.68 1055.77 1177 1050.14C1097.14 1007.99 1007.09 986.085 932.917 935.291C932.917 919.986 932.917 904.654 932.917 889.349M932.917 889.349C934.525 882.114 929.5 871.26 935.789 866.379M932.917 889.349C939.206 884.468 934.181 873.614 935.789 866.379M935.789 866.379C942.565 844.47 965.222 825.749 970.19 800.28C972.66 772.17 1008.12 774.266 1018.35 747.936C1030.44 722.582 1036.49 695.678 1042.04 668.256M1042.04 668.256C1037.3 651.976 1038.3 625.961 1039.16 610.829M1042.04 668.256C1040.89 649.191 1044.79 628.747 1039.16 610.829M1039.16 610.829C1035.32 603.077 1035.06 592.797 1024.81 590.73C1028.02 578.67 1026.64 565.376 1030.55 553.403M1030.55 553.403C1024.81 545.334 1030.52 529.886 1033.42 521.818M1030.55 553.403C1030.46 542.52 1035.37 533.131 1033.42 521.818M1033.42 521.818C1038.5 507.605 1035.49 491.181 1036.29 475.877C1041.32 480.7 1046.52 482.595 1044.91 473.005M1044.91 473.005C1044.91 464.391 1044.91 455.777 1044.91 447.163M1044.91 473.005C1049.85 467.578 1049.27 452.791 1044.91 447.163M708.935 203.099C748.476 210.622 796.03 212.517 826.669 243.298M708.935 203.099C696.903 198.218 675.223 198.477 662.99 203.099M708.935 203.099C693.63 203.099 678.295 203.099 662.99 203.099M826.669 243.298C835.025 245.452 839.62 253.664 846.77 257.655C843.899 245.48 829.024 238.532 826.669 226.07M826.669 243.298C772.368 223.802 709.94 214.01 651.504 223.199C670.341 228.913 690.04 237.527 706.063 249.041C598.207 238.589 492.678 282.722 436.136 375.38M826.669 226.07C823.884 220.758 820.639 215.102 815.183 211.713C853.978 224.319 889.556 251.682 912.816 286.368M826.669 226.07C857.51 231.554 883.986 268.279 912.816 286.368M912.816 286.368C923.613 300.093 930.936 317.35 932.917 335.181M932.917 335.181C939.723 338.138 931.596 349.652 938.66 352.409C942.364 335.267 956.435 322.002 955.89 303.596C962.666 313.531 961.748 328.232 961.633 340.924C982.854 339.201 1000.05 352.208 1016.19 363.894C1008.84 373.743 994.397 358.094 987.477 366.766C1014.73 380.548 1028.4 417.904 1024.81 444.292C1023.63 435.592 1014.07 429.189 1007.58 424.192C1017.31 454.227 1024.49 490.721 1016.19 521.818C1012.46 511.51 1011.31 500.599 1007.58 490.233C999.451 499.623 1010.05 518.372 1001.83 527.561C993.478 523.167 988.453 497.986 981.734 516.075C973.32 498.072 970.535 475.561 955.89 461.52C966.227 497.584 969.3 535.658 973.119 573.502C950.319 520.985 923.527 461.663 941.532 401.222C931.108 404.667 921.862 411.673 909.945 409.836C913.333 393.182 922.35 378.94 930.045 363.894C888.638 365.646 848.608 362.459 809.44 355.28C815.212 363.291 826.124 366.852 835.284 369.637C786.238 386.492 731.563 364.21 683.091 355.28C698.483 366.708 717.722 372.135 734.779 381.122C677.089 403.548 622.759 363.263 565.357 363.894M932.917 335.181C916.463 321.341 900.64 301.128 881.229 289.241C887.115 305.579 900.468 320.136 901.33 338.053C852.8 317.064 816.13 269.945 763.495 257.656C792.756 276.147 820.897 303.109 843.898 329.439C775.871 338.714 713.845 303.282 651.504 303.597C677.549 311.034 702.33 326.31 723.293 343.796C669.365 327.602 620.548 291.509 559.614 297.855C587.841 314.049 621.467 328.262 651.504 343.796C599.04 341.643 537.273 321.141 482.081 340.925C508.729 346.955 541.781 347.499 565.357 363.894M565.357 363.894C555.852 367.225 545.974 368.603 536.641 372.508M536.641 372.508C531.645 384.482 557.403 374.576 564.409 379.199C575.034 382.443 588.387 382.816 596.944 389.736C551.2 405.184 506.662 423.187 467.724 452.906C482.455 455.921 502.671 446.876 519.412 444.292C508.586 469.818 494.946 494.598 487.825 521.818C497.502 515.472 499.397 501.058 510.797 495.976C495.98 534.911 489.576 578.125 476.338 616.572C459.769 580.164 456.783 537.783 453.366 498.847C451.643 508.495 448.111 519.349 444.751 527.561C439.64 509.213 436.797 487.735 436.136 467.263M536.641 372.508C496.985 398.724 453.854 436.339 441.879 484.492C434.815 481.735 442.942 470.22 436.136 467.263M436.136 467.263C438.434 432.519 442.598 395.938 467.724 369.637C453.079 370.412 441.363 380.835 430.393 389.736C432.001 385.142 431.829 378.165 436.136 375.38M436.136 375.38C465.34 289.383 556.082 238.331 642.889 234.684C615.839 228.224 584.855 231.066 559.614 228.941C592.579 216.537 628.732 207.751 662.99 203.099M898.458 398.35C895.271 408.831 887.862 418.105 881.229 427.064C889.844 427.064 898.458 427.064 907.073 427.064M898.458 398.35C903.11 394.503 905.924 387.181 907.073 381.122C864.114 385.946 818.313 399.872 774.981 389.736M898.458 398.35C824.918 405.557 749.825 407.137 677.347 418.45C616.671 400.963 563.518 450.408 530.897 498.847C522.082 494.655 534.2 482.595 528.027 478.748M907.073 427.064C911.553 428.241 914.797 425.743 918.559 424.192C918.502 516.65 975.445 595.267 970.247 688.356C974.698 683.905 975.502 676.382 981.734 673.999M907.073 427.064C896.333 491.812 936.019 549.383 943.456 611.777C955.459 679.282 940.786 747.218 922.35 809.871C907.562 858.109 854.725 904.309 818.055 920.934M981.734 673.999C984.576 670.18 984.749 663.748 990.348 662.514M981.734 673.999C988.367 690.279 982.738 707.852 975.99 722.812C1002.67 718.045 1004.79 680.747 990.348 662.514M990.348 662.514C995.603 655.192 996.292 644.051 1004.71 639.543M1004.71 639.543C1005.85 633.484 1008.67 626.162 1013.32 622.315M1004.71 639.543C1014.81 653.813 1010.22 673.798 1016.19 688.356C1019.58 666.361 1020.24 643.477 1013.32 622.315M1013.32 622.315C1011.8 615.251 1014.99 607.585 1021.94 605.087C1026.82 608.791 1021.91 617.06 1027.68 619.443M1027.68 619.443C1032.33 633.57 1032.53 657.202 1027.68 671.128M1027.68 619.443C1027.68 636.671 1027.68 653.9 1027.68 671.128M1027.68 671.128C1023.17 704.464 1014.99 741.131 986.816 762.35C960.656 774.065 970.764 737.771 964.504 725.683C955.488 819.633 899.435 903.62 815.183 946.776M815.183 946.776C755.627 991.77 656.041 986.314 608.43 923.805M815.183 946.776C821.299 940.373 824.085 927.653 818.055 920.934M608.43 923.805C552.837 883.233 511.716 817.48 505.054 748.654M608.43 923.805C628.302 913.21 642.459 954.529 668.762 949.619C718.239 966.416 781.701 959.927 818.055 920.934M505.054 748.654C501.436 741.648 495.262 727.09 502.182 719.94M505.054 748.654C506.834 738.317 500.402 730.22 502.182 719.94M502.182 719.94C497.502 707.565 499.856 693.179 499.311 679.742M499.311 679.742C494.688 667.51 494.429 645.831 499.311 633.8M499.311 679.742C499.311 664.437 499.311 649.104 499.311 633.8M499.311 633.8C502.096 580.422 513.554 529.111 528.027 478.748M528.027 478.748C550.827 429.878 605.185 377.504 662.99 401.222M662.99 401.222C673.328 396.656 693.055 396.312 703.192 401.222M662.99 401.222C676.4 401.222 689.782 401.222 703.192 401.222M703.192 401.222C718.928 399.872 735.813 396.139 749.137 389.736M749.137 389.736C754.794 381.467 768.319 385.975 774.981 389.736M749.137 389.736C758.039 385.315 765.218 391.172 774.981 389.736M464.852 630.929C468.844 635.265 469.734 642.845 473.467 648.157M464.852 630.929C465.828 623.607 460.057 618.324 461.981 610.829C447.106 630.958 456.754 668.285 462.009 694.07C467.264 718.218 469.82 750.75 493.568 763.01C488.6 742.566 488.543 720.658 484.953 699.841M464.852 630.929C463.761 645.774 465.799 659.958 467.723 673.999C475.534 668.572 465.828 653.785 473.467 648.157M473.467 648.157C478.865 654.072 479.468 665.356 484.953 671.128M484.953 671.128C489.375 677.674 489.892 693.495 484.953 699.841M484.953 671.128C484.953 680.689 484.953 690.279 484.953 699.841M918.559 926.677C919.191 925.959 921.431 926.677 921.431 926.677M918.559 926.677C915.774 910.396 922.895 891.187 918.559 877.864C871.523 932.965 808.061 984.075 734.779 989.846M918.559 926.677C876.232 979.94 827.674 1045.29 755.081 1053.22C680.219 1064.04 628.617 988.209 588.329 938.162M921.431 926.677C923.642 913.382 927.806 942.268 921.431 943.905M921.431 926.677C921.431 932.419 921.431 938.162 921.431 943.905M921.431 943.905C935.731 991.11 894.381 1030.79 860.467 1058.1C824.372 1086.9 780.293 1101.66 737.651 1116.19C723.006 1086.35 694.434 1125.37 676.687 1105.36C639.472 1084.17 602.658 1049.86 594.073 1007.07M594.073 1007.07C589.679 996.479 584.338 977.758 591.201 966.875M594.073 1007.07C595.192 993.091 589.047 981.089 591.201 966.875M591.201 966.875C591.804 956.941 586.319 948.499 588.329 938.162M588.329 938.162C588.329 934.343 588.329 930.496 588.329 926.677C621.008 958.003 655.983 990.937 703.192 989.846M703.192 989.846C713.731 989.846 724.24 989.846 734.779 989.846M703.192 989.846C710.486 994.785 727.284 994.325 734.779 989.846M668.733 188.742C681.167 188.742 693.629 188.742 706.063 188.742M668.733 188.742C678.123 184.206 696.874 183.832 706.063 188.742M864 582.116C867.963 586.107 875.659 585.82 881.229 587.859C878.444 596.616 866.9 600.32 866.872 607.958M864 582.116C881.258 580.537 895.07 591.477 909.945 596.473C892.055 534.021 771.794 531.523 757.752 593.601M864 582.116C827.244 580.537 791.177 582.317 757.752 593.601M866.872 607.958C867.762 613.299 884.532 621.511 872.615 622.315M866.872 607.958C837.467 593.4 792.958 590.7 772.11 622.314C799.275 601.037 847.689 592.367 872.615 622.315M872.615 622.315C873.045 623.607 871.897 627.282 872.615 628.057M872.615 628.057C876.29 631.388 881.631 632.68 884.101 636.671C875.486 636.671 866.872 636.671 858.257 636.671M872.615 628.057C841.114 598.569 788.851 601.986 766.367 642.414M858.257 636.671C853.863 639.916 848.35 639.284 843.899 642.414M858.257 636.671C860.353 628.948 853.001 625.53 846.77 625.186C848.321 631.704 842.406 636.011 843.899 642.414M843.899 642.414C830.69 646.434 817.423 649.966 803.697 645.286M803.697 645.286C792.297 635.58 776.532 651.89 766.367 642.414M803.697 645.286C799.562 639.399 801.026 632.106 800.825 625.186C792.153 626.219 781.815 633.111 780.724 642.414C775.928 642.414 771.162 642.414 766.367 642.414M766.367 642.414C731.764 649.248 738.254 606.838 757.752 593.601M665.862 593.601C677.779 600.406 680.162 612.983 677.348 625.186C680.737 619.673 683.206 613.73 683.091 625.186M665.862 593.601C653.198 538.213 536.355 542.492 530.899 605.087C536.441 603.737 538.623 595.181 545.256 596.473M665.862 593.601C654.519 590.96 642.458 591.276 631.403 587.859M683.091 625.186C685.848 645.199 683.551 665.213 680.249 685.513C681.368 701.937 657.018 722.525 677.348 734.297M683.091 625.186C678.037 626.622 681.024 632.996 680.22 636.671M677.348 734.297C706.035 746.299 736.617 720.888 763.495 737.168C763.495 731.426 763.495 725.683 763.495 719.94M677.348 734.297C661.871 741.217 663.621 715.949 662.989 708.455C653.858 717.643 647.712 730.478 654.374 742.911C677.835 729.818 699.429 771.337 721.311 746.672C737.88 734.527 784.86 756.32 763.495 719.94M763.495 719.94C764.615 712.102 755.082 710.264 752.009 705.584C758.7 704.32 763.524 709.144 769.238 711.326M769.238 711.326C805.075 743.313 747.788 757.785 731.19 779.521C701.441 806.511 672.179 763.183 648.633 748.654M769.238 711.326C794.135 743.026 753.041 755.258 728.145 756.378C701.784 773.634 675.482 749.831 648.633 748.654M648.633 748.654C635.021 729.387 654.491 713.939 665.202 699.181C675.223 680.431 679.961 658.695 680.22 636.671M680.22 636.671C676.516 639.198 675.338 646.836 668.734 645.286M668.734 645.286C662.043 645.286 655.323 645.286 648.633 645.286M668.734 645.286C668.475 642.558 665.115 641.897 662.99 642.414M648.633 645.286C644.957 644.482 638.582 647.468 637.146 642.414M648.633 645.286C648.432 645.257 648.632 642.414 648.632 642.414M637.146 642.414C626.665 651.43 609.034 649.564 596.945 645.286M637.146 642.414C637.003 637.361 641.539 633.599 640.017 628.057C645.617 630.641 650.01 635.867 648.632 642.414M596.945 645.286C590.053 644.338 580.088 643.993 576.844 636.671M596.945 645.286C594.906 639.715 595.192 632.019 591.201 628.057C585.199 627.77 580.921 633.771 576.844 636.671M576.844 636.671C572.077 641.409 558.006 647.123 550.999 642.414C573.398 627.598 595.021 605.632 625.66 610.829M625.66 610.829C624.942 609.997 625.66 607.958 625.66 607.958M625.66 610.829C639.444 617.52 653.571 628.775 662.99 642.414M625.66 607.958C614.174 607.958 602.688 607.958 591.201 607.958M625.66 607.958C637.864 610.944 648.46 618.955 657.247 625.186C643.09 595.181 596.485 596.674 571.1 610.829M625.66 607.958C617.419 603.048 599.644 603.45 591.201 607.958M591.201 607.958C575.35 610.456 565.903 624.382 553.871 630.929C559.126 623.951 562.629 614.763 571.1 610.829M571.1 610.829C560.648 616.084 546.204 618.008 533.77 607.958C535.177 601.584 544.022 602.962 545.256 596.473M545.256 596.473C552.292 588.691 565.27 593.199 573.971 587.859M694.578 803.209C703.192 803.209 711.807 803.209 720.422 803.209M694.578 803.209C663.651 795.629 627.182 807.66 599.816 797.466M694.578 803.209C700.005 808.148 714.794 807.574 720.422 803.209M720.422 803.209C736.56 798.931 757.609 794.538 775.039 800.28C789.77 803.898 826.756 794.078 826.67 803.209M826.67 803.209C811.852 818.628 791.809 829.97 772.11 837.665M826.67 803.209C817.509 806.138 805.563 804.157 797.953 808.952M772.11 837.665C758.154 845.418 740.609 850.069 723.293 849.151M772.11 837.665C771.679 832.411 764.184 836.718 763.495 831.923M723.293 849.151C719.474 853.371 706.811 854.061 703.192 849.151M723.293 849.151C716.603 849.151 709.883 849.151 703.192 849.151M703.192 849.151C687.255 848.749 672.179 845.045 657.247 840.537M657.247 840.537C637.692 829.31 609.235 812.512 599.816 797.466M657.247 840.537C658.109 836.947 662.502 835.627 662.99 831.923M599.816 797.466C610.211 807.057 628.617 803.496 640.017 808.952M573.971 587.859C590.023 583.178 615.552 583.006 631.403 587.859M573.971 587.859C593.125 587.859 612.249 587.859 631.403 587.859M662.99 642.414C658.194 642.414 653.427 642.414 648.632 642.414M640.017 808.952C652.939 808.234 665.258 809.153 677.348 811.823M640.017 808.952C636.571 823.739 653.169 827.443 662.99 831.923M677.348 811.823C681.167 807.602 693.83 806.913 697.449 811.823M677.348 811.823C684.038 811.823 690.758 811.823 697.449 811.823M697.449 811.823C703.996 816.245 719.818 816.762 726.164 811.823M726.164 811.823C729.983 807.602 742.647 806.913 746.265 811.823M726.164 811.823C732.855 811.823 739.574 811.823 746.265 811.823M746.265 811.823C762.604 807.602 780.58 809.182 797.953 808.952M797.953 808.952C794.565 824.055 776.244 828.391 763.495 831.923M662.99 831.923C693.543 846.911 732.482 845.906 763.495 831.923M754.88 297.855C729.61 302.248 702.991 281 677.348 274.884C702.445 270.606 729.064 292.169 754.88 297.855ZM645.761 662.514C627.441 679.253 590.972 683.446 573.972 662.514C596.284 671.3 623.449 670.094 645.761 662.514ZM858.257 665.385C835.974 676.038 808.665 677.157 786.468 665.385C807.315 666.562 837.668 667.337 858.257 665.385ZM852.514 811.823C851.537 797.581 854.036 774.524 834.566 766.6C818.256 761.517 805.592 747.505 795.082 734.297C826.928 744.777 877.755 770.189 852.514 811.823ZM622.789 742.911C610.872 765.853 578.567 780.009 582.587 808.952C566.477 776.161 596.973 753.908 622.789 742.911ZM754.881 866.379C735.756 899.37 692.682 891.015 668.734 869.25C693.544 866.379 727.974 873.528 754.881 866.379ZM820.926 630.928C796.489 634.977 822.218 606.436 820.926 630.928ZM608.43 622.314C585.343 630.612 620.347 644.481 608.43 622.314ZM711.807 1124.8C736.359 1159.83 729.18 1214.38 711.089 1250.42C674.362 1270.84 616.815 1239.16 625.66 1193.71C622.989 1147.6 674.792 1128.62 711.807 1124.8ZM706.063 1133.41C733.946 1170.11 720.967 1284.16 654.145 1239.88C600.849 1203.93 650.527 1124.6 706.063 1133.41Z" stroke="black"/>
</g>
</g>
<defs>
<linearGradient id="paint0_linear_8_15" x1="285.5" y1="133.5" x2="1228.5" y2="1464" gradientUnits="userSpaceOnUse">
<stop stop-color="#E4B43C"/>
<stop offset="1" stop-color="#BF2927"/>
</linearGradient>
<linearGradient id="paint1_linear_8_15" x1="594" y1="351" x2="896.5" y2="1172" gradientUnits="userSpaceOnUse">
<stop stop-color="#FFA900"/>
<stop offset="1" stop-color="#C6004F"/>
</linearGradient>
<clipPath id="clip0_8_15">
<rect width="1500" height="1500" fill="white"/>
</clipPath>
</defs>
</svg>
