<svg width="1500" height="1500" viewBox="0 0 1500 1500" fill="none" xmlns="http://www.w3.org/2000/svg">
<g clip-path="url(#clip0_4_1143)">
<circle cx="750" cy="750" r="715" fill="#FFFAED" stroke="#AC8362" stroke-width="70" stroke-dasharray="50 50"/>
<path d="M718.421 188.743C700.445 193.452 673.022 193.595 655.247 188.743C601.175 192.935 547.592 211.398 505.926 243.298C512.042 252.372 525.395 236.55 531.77 246.169C468.394 274.51 415.127 339.459 411.164 409.836C411.164 415.578 411.164 421.321 411.164 427.064C414.753 426.202 416.074 421.809 419.779 421.321C424.517 423.274 423.77 433.553 419.779 435.678C419.233 436.884 419.779 439.985 419.779 441.42C424.402 453.652 424.66 475.331 419.779 487.362C414.954 531.954 457.425 568.506 442.751 610.829C444.532 621.597 444.13 642.472 439.88 653.9C451.825 696.625 445.68 762.293 494.439 780.238C497.627 811.881 512.731 841.254 531.109 867.039C551.153 890.268 575.446 913.44 574.843 946.776C579.524 950.136 579.38 972.991 574.843 969.747C491.855 1007.65 404.071 1034.47 325.017 1081.73C324.759 1084.28 327.515 1085.17 327.889 1087.47C353.158 1097.32 377.768 1062.06 404.502 1057.84C458.947 1033.69 516.235 1012.96 569.1 986.975C580.96 1041.3 614.528 1087.73 660.99 1119.06C620.415 1127.24 601.951 1171.92 606.43 1210.94C610.364 1252.69 652.519 1268.25 686.834 1276.98C679.684 1294.44 652.203 1284.56 640.889 1299.95C641.578 1304.75 649.073 1300.44 649.504 1305.69C649.762 1308.42 653.122 1309.08 655.247 1308.56C666.532 1297.54 685.858 1297.8 701.192 1294.21C696.597 1284.39 698.521 1272.9 695.449 1262.62C637.587 1270.69 599.883 1207.78 628.742 1158.59C640.975 1137.52 665.527 1128.62 687.466 1122.56C714.602 1104.58 736.081 1121.27 729.908 1153.51C729.821 1183.69 731.831 1214.27 724.193 1242.55C715.205 1262.02 712.161 1308.42 738.522 1311.44C715.98 1252.17 758.767 1190.81 741.394 1127.67C825.042 1107.4 928.304 1054.05 939.532 958.261C1008.91 1004.69 1092.93 1023.93 1166.39 1064.5C1169.86 1060.94 1174.68 1055.77 1175 1050.14C1095.14 1007.99 1005.09 986.085 930.917 935.291C930.917 919.986 930.917 904.654 930.917 889.349C932.525 882.114 927.5 871.26 933.789 866.379C940.565 844.47 963.222 825.749 968.19 800.28C970.66 772.17 1006.12 774.266 1016.35 747.936C1028.44 722.582 1034.49 695.678 1040.04 668.256C1035.3 651.976 1036.3 625.961 1037.16 610.829C1033.32 603.077 1033.06 592.797 1022.81 590.73C1026.02 578.67 1024.64 565.376 1028.55 553.403C1022.81 545.334 1028.52 529.886 1031.42 521.818C1036.5 507.605 1033.49 491.181 1034.29 475.877C1039.32 480.7 1044.52 482.595 1042.91 473.005C1042.91 464.391 1042.91 455.777 1042.91 447.163C1043.91 438.951 1042.13 431.687 1040.04 424.192C1037.25 407.165 1027.8 393.326 1019.94 378.251C1028.87 375.983 1034.93 383.247 1042.91 383.994C1032.48 358.812 1009.34 344.312 988.348 329.438C994.091 325.619 1002.45 324.844 1005.58 317.953C994.379 319.36 985.304 313.014 973.99 315.082C969.109 291.939 957.307 270.605 942.403 251.912C932.008 264.718 948.146 285.277 939.532 297.854C904.585 231.841 828.029 188.226 758.623 183C773.412 188.57 788.229 196.955 798.825 208.842C773.498 197.759 745.931 193.308 718.421 188.743ZM706.935 203.099C746.476 210.622 794.03 212.517 824.669 243.298C833.025 245.452 837.62 253.664 844.77 257.655C841.899 245.48 827.024 238.532 824.669 226.07C821.884 220.758 818.639 215.102 813.183 211.713C851.978 224.319 887.556 251.682 910.816 286.368C921.613 300.093 928.936 317.35 930.917 335.181C937.723 338.138 929.596 349.652 936.66 352.409C940.364 335.267 954.435 322.002 953.89 303.596C960.666 313.531 959.748 328.232 959.633 340.924C980.854 339.201 998.054 352.208 1014.19 363.894C1006.84 373.743 992.397 358.094 985.477 366.766C1012.73 380.548 1026.4 417.904 1022.81 444.292C1021.63 435.592 1012.07 429.189 1005.58 424.192C1015.31 454.227 1022.49 490.721 1014.19 521.818C1010.46 511.51 1009.31 500.599 1005.58 490.233C997.451 499.623 1008.05 518.372 999.835 527.561C991.478 523.167 986.453 497.986 979.734 516.075C971.32 498.072 968.535 475.561 953.89 461.52C964.227 497.584 967.3 535.658 971.119 573.502C948.319 520.985 921.527 461.663 939.532 401.222C929.108 404.667 919.862 411.673 907.945 409.836C911.333 393.182 920.35 378.94 928.045 363.894C886.638 365.646 846.608 362.459 807.44 355.28C813.212 363.291 824.124 366.852 833.284 369.637C784.238 386.492 729.563 364.21 681.091 355.28C696.483 366.708 715.722 372.135 732.779 381.122C675.089 403.548 620.759 363.263 563.357 363.894C553.852 367.225 543.974 368.603 534.641 372.508C529.645 384.482 555.403 374.576 562.409 379.199C573.034 382.443 586.387 382.816 594.944 389.736C549.2 405.184 504.662 423.187 465.724 452.906C480.455 455.921 500.671 446.876 517.412 444.292C506.586 469.818 492.946 494.598 485.825 521.818C495.502 515.472 497.397 501.058 508.797 495.976C493.98 534.911 487.576 578.125 474.338 616.572C457.769 580.164 454.783 537.783 451.366 498.847C449.643 508.495 446.111 519.349 442.751 527.561C437.64 509.213 434.797 487.735 434.136 467.263C436.434 432.519 440.598 395.938 465.724 369.637C451.079 370.412 439.363 380.835 428.393 389.736C430.001 385.142 429.829 378.165 434.136 375.38C463.34 289.383 554.082 238.331 640.889 234.684C613.839 228.224 582.855 231.066 557.614 228.941C590.579 216.537 626.732 207.751 660.99 203.099C673.223 198.477 694.903 198.218 706.935 203.099ZM896.458 398.35C893.271 408.831 885.862 418.105 879.229 427.064C887.844 427.064 896.458 427.064 905.073 427.064C909.553 428.241 912.797 425.743 916.559 424.192C916.502 516.65 973.445 595.267 968.247 688.356C972.698 683.905 973.502 676.382 979.734 673.999C982.576 670.18 982.749 663.748 988.348 662.514C993.603 655.192 994.292 644.051 1002.71 639.543C1003.85 633.484 1006.67 626.162 1011.32 622.315C1009.8 615.251 1012.99 607.585 1019.94 605.087C1024.82 608.791 1019.91 617.06 1025.68 619.443C1030.33 633.57 1030.53 657.202 1025.68 671.128C1021.17 704.464 1012.99 741.131 984.816 762.35C958.656 774.065 968.764 737.771 962.504 725.683C953.488 819.633 897.435 903.62 813.183 946.776C753.627 991.77 654.041 986.314 606.43 923.805C550.837 883.233 509.716 817.48 503.054 748.654C499.436 741.648 493.262 727.09 500.182 719.94C495.502 707.565 497.856 693.179 497.311 679.742C492.688 667.51 492.429 645.831 497.311 633.8C500.096 580.422 511.554 529.111 526.027 478.748C548.827 429.878 603.185 377.504 660.99 401.222C671.328 396.656 691.055 396.312 701.192 401.222C716.928 399.872 733.813 396.139 747.137 389.736C752.794 381.467 766.319 385.975 772.981 389.736C816.313 399.872 862.114 385.946 905.073 381.122C903.924 387.181 901.11 394.503 896.458 398.35ZM462.852 630.929C466.844 635.265 467.734 642.845 471.467 648.157C476.865 654.072 477.468 665.356 482.953 671.128C487.375 677.674 487.892 693.495 482.953 699.841C486.543 720.658 486.6 742.566 491.568 763.01C467.82 750.75 465.264 718.218 460.009 694.07C454.754 668.285 445.106 630.958 459.981 610.829C458.057 618.324 463.828 623.607 462.852 630.929ZM916.559 926.677C917.191 925.959 919.431 926.677 919.431 926.677C921.642 913.382 925.806 942.268 919.431 943.905C933.731 991.11 892.381 1030.79 858.467 1058.1C822.372 1086.9 778.293 1101.66 735.651 1116.19C721.006 1086.35 692.434 1125.37 674.687 1105.36C637.472 1084.17 600.658 1049.86 592.073 1007.07C587.679 996.479 582.338 977.758 589.201 966.875C589.804 956.941 584.319 948.499 586.329 938.162C586.329 934.343 586.329 930.496 586.329 926.677C619.008 958.003 653.983 990.937 701.192 989.846C711.731 989.846 722.24 989.846 732.779 989.846C806.061 984.075 869.523 932.965 916.559 877.864C920.895 891.187 913.774 910.396 916.559 926.677Z" fill="#301E13"/>
<path d="M666.733 188.742C679.167 188.742 691.629 188.742 704.063 188.742C694.874 183.832 676.123 184.206 666.733 188.742Z" fill="#746E6B"/>
<path d="M718.421 188.743C713.626 188.743 708.859 188.742 704.063 188.742C691.629 188.742 679.167 188.742 666.733 188.742C662.914 188.742 659.066 188.743 655.247 188.743C673.022 193.595 700.445 193.452 718.421 188.743Z" fill="#020000"/>
<path d="M660.99 203.099C676.295 203.099 691.63 203.099 706.935 203.099C694.903 198.218 673.223 198.477 660.99 203.099Z" fill="#010000"/>
<path d="M434.136 375.38C490.678 282.722 596.207 238.589 704.063 249.041C688.04 237.527 668.341 228.913 649.504 223.199C707.94 214.01 770.368 223.802 824.669 243.298C794.03 212.517 746.476 210.622 706.935 203.099C691.63 203.099 676.295 203.099 660.99 203.099C626.732 207.751 590.579 216.537 557.614 228.941C582.855 231.066 613.839 228.224 640.889 234.684C554.082 238.331 463.34 289.383 434.136 375.38Z" fill="#976746"/>
<path d="M824.669 226.07C855.51 231.554 881.986 268.279 910.816 286.368C887.556 251.682 851.978 224.319 813.183 211.713C818.639 215.102 821.884 220.758 824.669 226.07Z" fill="#986846"/>
<path d="M434.136 375.38C429.829 378.165 430.001 385.142 428.393 389.736C439.363 380.835 451.079 370.412 465.724 369.637C440.598 395.938 436.434 432.519 434.136 467.263C440.942 470.22 432.815 481.735 439.879 484.492C451.854 436.339 494.985 398.724 534.641 372.508C543.974 368.603 553.852 367.225 563.357 363.894C539.781 347.499 506.729 346.955 480.081 340.925C535.273 321.141 597.04 341.643 649.504 343.796C619.467 328.262 585.841 314.049 557.614 297.855C618.548 291.509 667.365 327.602 721.293 343.796C700.33 326.31 675.549 311.034 649.504 303.597C711.845 303.282 773.871 338.714 841.898 329.439C818.897 303.109 790.756 276.147 761.495 257.656C814.13 269.945 850.8 317.064 899.33 338.053C898.468 320.136 885.115 305.579 879.229 289.241C898.64 301.128 914.463 321.341 930.917 335.181C928.936 317.35 921.613 300.093 910.816 286.368C881.986 268.279 855.51 231.554 824.669 226.07C827.024 238.532 841.899 245.48 844.77 257.655C837.62 253.664 833.025 245.452 824.669 243.298C770.368 223.802 707.94 214.01 649.504 223.199C668.341 228.913 688.04 237.527 704.063 249.041C596.207 238.589 490.678 282.722 434.136 375.38ZM752.88 297.855C727.61 302.248 700.991 281 675.348 274.884C700.445 270.606 727.064 292.169 752.88 297.855Z" fill="#72482D"/>
<path d="M563.357 363.894C620.759 363.263 675.089 403.548 732.779 381.122C715.722 372.135 696.483 366.708 681.091 355.28C729.563 364.21 784.238 386.492 833.284 369.637C824.124 366.852 813.212 363.291 807.44 355.28C846.608 362.459 886.638 365.646 928.045 363.894C920.35 378.94 911.333 393.182 907.945 409.836C919.862 411.673 929.108 404.667 939.532 401.222C921.527 461.663 948.319 520.985 971.119 573.502C967.3 535.658 964.227 497.584 953.89 461.52C968.535 475.561 971.32 498.072 979.734 516.075C986.453 497.986 991.478 523.167 999.835 527.561C1008.05 518.372 997.451 499.623 1005.58 490.233C1009.31 500.599 1010.46 511.51 1014.19 521.818C1022.49 490.721 1015.31 454.227 1005.58 424.192C1012.07 429.189 1021.63 435.592 1022.81 444.292C1026.4 417.904 1012.73 380.548 985.477 366.766C992.397 358.094 1006.84 373.743 1014.19 363.894C998.054 352.208 980.854 339.201 959.633 340.924C959.748 328.232 960.666 313.531 953.89 303.596C954.435 322.002 940.364 335.267 936.66 352.409C929.596 349.652 937.723 338.138 930.917 335.181C914.463 321.341 898.64 301.128 879.229 289.241C885.115 305.579 898.468 320.136 899.33 338.053C850.8 317.064 814.13 269.945 761.495 257.656C790.756 276.147 818.897 303.109 841.898 329.439C773.871 338.714 711.845 303.282 649.504 303.597C675.549 311.034 700.33 326.31 721.293 343.796C667.365 327.602 618.548 291.509 557.614 297.855C585.841 314.049 619.467 328.262 649.504 343.796C597.04 341.643 535.273 321.141 480.081 340.925C506.729 346.955 539.781 347.499 563.357 363.894Z" fill="#5A3720"/>
<path d="M675.348 274.884C700.445 270.606 727.064 292.169 752.88 297.855C727.61 302.248 700.991 281 675.348 274.884Z" fill="#916141"/>
<path d="M434.136 467.263C434.797 487.735 437.64 509.213 442.751 527.561C446.111 519.349 449.643 508.495 451.366 498.847C454.783 537.783 457.769 580.164 474.338 616.572C487.576 578.125 493.98 534.911 508.797 495.976C497.397 501.058 495.502 515.472 485.825 521.818C492.946 494.598 506.586 469.818 517.412 444.292C500.671 446.876 480.455 455.921 465.724 452.906C504.662 423.187 549.2 405.184 594.944 389.736C586.387 382.816 573.034 382.443 562.409 379.199C555.403 374.576 529.645 384.482 534.641 372.508C494.985 398.724 451.854 436.339 439.879 484.492C432.815 481.735 440.942 470.22 434.136 467.263Z" fill="#5C3820"/>
<path d="M772.981 389.736C763.218 391.172 756.039 385.315 747.137 389.736C733.813 396.139 716.928 399.872 701.192 401.222C687.782 401.222 674.4 401.222 660.99 401.222C603.185 377.504 548.827 429.878 526.027 478.748C532.2 482.595 520.082 494.655 528.897 498.847C561.518 450.408 614.671 400.963 675.347 418.45C747.825 407.137 822.918 405.557 896.458 398.35C901.11 394.503 903.924 387.181 905.073 381.122C862.114 385.946 816.313 399.872 772.981 389.736Z" fill="#E1AB81"/>
<path d="M772.981 389.736C763.218 391.172 756.039 385.315 747.137 389.736C752.794 381.467 766.319 385.975 772.981 389.736Z" fill="black"/>
<path d="M701.192 401.222C687.782 401.222 674.4 401.222 660.99 401.222C671.328 396.656 691.055 396.312 701.192 401.222Z" fill="black"/>
<path d="M526.027 478.748C511.554 529.111 500.096 580.422 497.311 633.8C497.311 649.104 497.311 664.437 497.311 679.742C497.856 693.179 495.502 707.565 500.182 719.94C498.402 730.22 504.834 738.317 503.054 748.654C509.716 817.48 550.837 883.233 606.43 923.805C626.302 913.21 640.459 954.529 666.762 949.619C716.239 966.416 779.701 959.927 816.055 920.934C852.725 904.309 905.562 858.109 920.35 809.871C938.786 747.218 953.459 679.282 941.456 611.777C934.019 549.383 894.333 491.812 905.073 427.064C896.458 427.064 887.844 427.064 879.229 427.064C885.862 418.105 893.271 408.831 896.458 398.35C822.918 405.557 747.825 407.137 675.347 418.45C614.671 400.963 561.518 450.408 528.897 498.847C520.082 494.655 532.2 482.595 526.027 478.748ZM862 582.116C865.963 586.107 873.659 585.82 879.229 587.859C876.444 596.616 864.9 600.32 864.872 607.958C865.762 613.299 882.532 621.511 870.615 622.315C871.045 623.607 869.897 627.282 870.615 628.057C874.29 631.388 879.631 632.68 882.101 636.671C873.486 636.671 864.872 636.671 856.257 636.671C851.863 639.916 846.35 639.284 841.899 642.414C828.69 646.434 815.423 649.966 801.697 645.286C790.297 635.58 774.532 651.89 764.367 642.414C729.764 649.248 736.254 606.838 755.752 593.601C769.794 531.523 890.055 534.021 907.945 596.473C893.07 591.477 879.258 580.537 862 582.116ZM663.862 593.601C675.779 600.406 678.162 612.983 675.348 625.186C678.737 619.673 681.206 613.73 681.091 625.186C683.848 645.199 681.551 665.213 678.249 685.513C679.368 701.937 655.018 722.525 675.348 734.297C704.035 746.299 734.617 720.888 761.495 737.168C761.495 731.426 761.495 725.683 761.495 719.94C762.615 712.102 753.082 710.264 750.009 705.584C756.7 704.32 761.524 709.144 767.238 711.326C803.075 743.313 745.788 757.785 729.19 779.521C699.441 806.511 670.179 763.183 646.633 748.654C633.021 729.387 652.491 713.939 663.202 699.181C673.223 680.431 677.961 658.695 678.22 636.671C674.516 639.198 673.338 646.836 666.734 645.286C660.043 645.286 653.323 645.286 646.633 645.286C642.957 644.482 636.582 647.468 635.146 642.414C624.665 651.43 607.034 649.564 594.945 645.286C588.053 644.338 578.088 643.993 574.844 636.671C570.077 641.409 556.006 647.123 548.999 642.414C571.398 627.598 593.021 605.632 623.66 610.829C622.942 609.997 623.66 607.958 623.66 607.958C612.174 607.958 600.688 607.958 589.201 607.958C573.35 610.456 563.903 624.382 551.871 630.929C557.126 623.951 560.629 614.763 569.1 610.829C558.648 616.084 544.204 618.008 531.77 607.958C533.177 601.584 542.022 602.962 543.256 596.473C536.623 595.181 534.441 603.737 528.899 605.087C534.355 542.492 651.198 538.213 663.862 593.601ZM643.761 662.514C625.441 679.253 588.972 683.446 571.972 662.514C594.284 671.3 621.449 670.094 643.761 662.514ZM856.257 665.385C833.974 676.038 806.665 677.157 784.468 665.385C805.315 666.562 835.668 667.337 856.257 665.385ZM850.514 811.823C849.537 797.581 852.036 774.524 832.566 766.6C816.256 761.517 803.592 747.505 793.082 734.297C824.928 744.777 875.755 770.189 850.514 811.823ZM620.789 742.911C608.872 765.853 576.567 780.009 580.587 808.952C564.477 776.161 594.973 753.908 620.789 742.911ZM692.578 803.209C701.192 803.209 709.807 803.209 718.422 803.209C734.56 798.931 755.609 794.538 773.039 800.28C787.77 803.898 824.756 794.078 824.67 803.209C809.852 818.628 789.809 829.97 770.11 837.665C756.154 845.418 738.609 850.069 721.293 849.151C717.474 853.371 704.811 854.061 701.192 849.151C685.255 848.749 670.179 845.045 655.247 840.537C635.692 829.31 607.235 812.512 597.816 797.466C625.182 807.66 661.651 795.629 692.578 803.209ZM752.881 866.379C733.756 899.37 690.682 891.015 666.734 869.25C691.544 866.379 725.974 873.528 752.881 866.379Z" fill="#F3CAA2"/>
<path d="M419.779 421.321C416.074 421.809 414.753 426.202 411.164 427.064C411.164 421.321 411.164 415.578 411.164 409.836C404.875 414.717 409.9 425.571 408.292 432.806C413.116 430.653 417.022 425.829 419.779 421.321Z" fill="#696562"/>
<path d="M905.073 427.064C894.333 491.812 934.019 549.383 941.456 611.777C953.459 679.282 938.786 747.218 920.35 809.871C905.562 858.109 852.725 904.309 816.055 920.934C822.085 927.653 819.299 940.373 813.183 946.776C897.435 903.62 953.488 819.633 962.504 725.683C968.764 737.771 958.656 774.065 984.816 762.35C1012.99 741.131 1021.17 704.464 1025.68 671.128C1025.68 653.9 1025.68 636.671 1025.68 619.443C1019.91 617.06 1024.82 608.791 1019.94 605.087C1012.99 607.585 1009.8 615.251 1011.32 622.315C1018.24 643.477 1017.58 666.361 1014.19 688.356C1008.22 673.798 1012.81 653.813 1002.71 639.543C994.292 644.051 993.603 655.192 988.348 662.514C1002.79 680.747 1000.67 718.045 973.99 722.812C980.738 707.852 986.367 690.279 979.734 673.999C973.502 676.382 972.698 683.905 968.247 688.356C973.445 595.267 916.502 516.65 916.559 424.192C912.797 425.743 909.553 428.241 905.073 427.064Z" fill="#E1AB80"/>
<path d="M419.779 441.42C424.402 453.652 424.66 475.331 419.779 487.362C419.779 472.058 419.779 456.725 419.779 441.42Z" fill="black"/>
<path d="M1042.91 473.005C1047.85 467.578 1047.27 452.791 1042.91 447.163C1042.91 455.777 1042.91 464.391 1042.91 473.005Z" fill="#96826B"/>
<path d="M1028.55 553.403C1028.46 542.52 1033.37 533.131 1031.42 521.818C1028.52 529.886 1022.81 545.334 1028.55 553.403Z" fill="#020000"/>
<path d="M755.752 593.601C789.177 582.317 825.244 580.537 862 582.116C879.258 580.537 893.07 591.477 907.945 596.473C890.055 534.021 769.794 531.523 755.752 593.601Z" fill="#58341E"/>
<path d="M543.256 596.473C550.292 588.691 563.27 593.199 571.971 587.859C588.023 583.178 613.552 583.006 629.403 587.859C640.458 591.276 652.519 590.96 663.862 593.601C651.198 538.213 534.355 542.492 528.899 605.087C534.441 603.737 536.623 595.181 543.256 596.473Z" fill="#57351F"/>
<path d="M755.752 593.601C736.254 606.838 729.764 649.248 764.367 642.414C786.851 601.986 839.114 598.569 870.615 628.057C869.897 627.282 871.045 623.607 870.615 622.315C845.689 592.367 797.275 601.037 770.11 622.314C790.958 590.7 835.467 593.4 864.872 607.958C864.9 600.32 876.444 596.616 879.229 587.859C873.659 585.82 865.963 586.107 862 582.116C825.244 580.537 789.177 582.317 755.752 593.601Z" fill="#D99E71"/>
<path d="M571.971 587.859C591.125 587.859 610.249 587.859 629.403 587.859C613.552 583.006 588.023 583.178 571.971 587.859Z" fill="#1F0100"/>
<path d="M543.256 596.473C542.022 602.962 533.177 601.584 531.77 607.958C544.204 618.008 558.648 616.084 569.1 610.829C594.485 596.674 641.09 595.181 655.247 625.186C646.46 618.955 635.864 610.944 623.66 607.958C623.66 607.958 622.942 609.997 623.66 610.829C637.444 617.52 651.571 628.775 660.99 642.414C663.115 641.897 666.475 642.558 666.734 645.286C673.338 646.836 674.516 639.198 678.22 636.671C679.024 632.996 676.037 626.622 681.091 625.186C681.206 613.73 678.737 619.673 675.348 625.186C678.162 612.983 675.779 600.406 663.862 593.601C652.519 590.96 640.458 591.276 629.403 587.859C610.249 587.859 591.125 587.859 571.971 587.859C563.27 593.199 550.292 588.691 543.256 596.473Z" fill="#DBA174"/>
<path d="M870.615 622.315C882.532 621.511 865.762 613.299 864.872 607.958C835.467 593.4 790.958 590.7 770.11 622.314C797.275 601.037 845.689 592.367 870.615 622.315Z" fill="#3A2315"/>
<path d="M569.1 610.829C560.629 614.763 557.126 623.951 551.871 630.929C563.903 624.382 573.35 610.456 589.201 607.958C597.644 603.45 615.419 603.048 623.66 607.958C635.864 610.944 646.46 618.955 655.247 625.186C641.09 595.181 594.485 596.674 569.1 610.829Z" fill="#503826"/>
<path d="M623.66 607.958C612.174 607.958 600.688 607.958 589.201 607.958C597.644 603.45 615.419 603.048 623.66 607.958Z" fill="#020000"/>
<path d="M764.367 642.414C769.162 642.414 773.928 642.414 778.724 642.414C779.815 633.111 790.153 626.219 798.825 625.186C799.026 632.106 797.562 639.399 801.697 645.286C815.423 649.966 828.69 646.434 841.899 642.414C840.406 636.011 846.321 631.704 844.77 625.186C851.001 625.53 858.353 628.948 856.257 636.671C864.872 636.671 873.486 636.671 882.101 636.671C879.631 632.68 874.29 631.388 870.615 628.057C839.114 598.569 786.851 601.986 764.367 642.414ZM818.926 630.928C820.218 606.436 794.489 634.977 818.926 630.928Z" fill="#362418"/>
<path d="M442.751 610.829C444.532 621.597 444.13 642.472 439.88 653.9C440.511 639.428 437.898 624.239 442.751 610.829Z" fill="#010100"/>
<path d="M482.953 699.841C482.953 690.279 482.953 680.689 482.953 671.128C477.468 665.356 476.865 654.072 471.467 648.157C463.828 653.785 473.534 668.572 465.723 673.999C463.799 659.958 461.761 645.774 462.852 630.929C463.828 623.607 458.057 618.324 459.981 610.829C445.106 630.958 454.754 668.285 460.009 694.07C465.264 718.218 467.82 750.75 491.568 763.01C486.6 742.566 486.543 720.658 482.953 699.841Z" fill="#DEAA80"/>
<path d="M574.844 636.671C578.921 633.771 583.199 627.77 589.201 628.057C593.192 632.019 592.906 639.715 594.945 645.286C607.034 649.564 624.665 651.43 635.146 642.414C635.003 637.361 639.539 633.599 638.017 628.057C643.617 630.641 648.01 635.867 646.632 642.414C651.427 642.414 656.194 642.414 660.99 642.414C651.571 628.775 637.444 617.52 623.66 610.829C593.021 605.632 571.398 627.598 548.999 642.414C556.006 647.123 570.077 641.409 574.844 636.671ZM606.43 622.314C618.347 644.481 583.343 630.612 606.43 622.314Z" fill="#2E1E14"/>
<path d="M1040.04 668.256C1038.89 649.191 1042.79 628.747 1037.16 610.829C1036.3 625.961 1035.3 651.976 1040.04 668.256Z" fill="black"/>
<path d="M818.926 630.928C820.218 606.436 794.489 634.977 818.926 630.928Z" fill="#EAE8E0"/>
<path d="M1025.68 619.443C1030.33 633.57 1030.53 657.202 1025.68 671.128C1025.68 653.9 1025.68 636.671 1025.68 619.443Z" fill="black"/>
<path d="M606.43 622.314C618.347 644.481 583.343 630.612 606.43 622.314Z" fill="#D1CCC2"/>
<path d="M1002.71 639.543C1012.81 653.813 1008.22 673.798 1014.19 688.356C1017.58 666.361 1018.24 643.477 1011.32 622.315C1006.67 626.162 1003.85 633.484 1002.71 639.543Z" fill="#A24425"/>
<path d="M678.22 636.671C677.961 658.695 673.223 680.431 663.202 699.181C652.491 713.939 633.021 729.387 646.633 748.654C673.482 749.831 699.784 773.634 726.145 756.378C751.041 755.258 792.135 743.026 767.238 711.326C761.524 709.144 756.7 704.32 750.009 705.584C753.082 710.264 762.615 712.102 761.495 719.94C782.86 756.32 735.88 734.527 719.311 746.672C697.429 771.337 675.835 729.818 652.374 742.911C645.712 730.478 651.858 717.643 660.989 708.455C661.621 715.949 659.871 741.217 675.348 734.297C655.018 722.525 679.368 701.937 678.249 685.513C681.551 665.213 683.848 645.199 681.091 625.186C676.037 626.622 679.024 632.996 678.22 636.671Z" fill="#A44529"/>
<path d="M764.367 642.414C774.532 651.89 790.297 635.58 801.697 645.286C797.562 639.399 799.026 632.106 798.825 625.186C790.153 626.219 779.815 633.111 778.724 642.414C773.928 642.414 769.162 642.414 764.367 642.414Z" fill="#E5DDCD"/>
<path d="M841.899 642.414C846.35 639.284 851.863 639.916 856.257 636.671C858.353 628.948 851.001 625.53 844.77 625.186C846.321 631.704 840.406 636.011 841.899 642.414Z" fill="#ECE7DB"/>
<path d="M574.844 636.671C578.088 643.993 588.053 644.338 594.945 645.286C592.906 639.715 593.192 632.019 589.201 628.057C583.199 627.77 578.921 633.771 574.844 636.671Z" fill="#F1EEE1"/>
<path d="M635.146 642.414C636.582 647.468 642.957 644.482 646.633 645.286C646.432 645.257 646.632 642.414 646.632 642.414C648.01 635.867 643.617 630.641 638.017 628.057C639.539 633.599 635.003 637.361 635.146 642.414Z" fill="#E3DDD2"/>
<path d="M471.467 648.157C467.734 642.845 466.844 635.265 462.852 630.929C461.761 645.774 463.799 659.958 465.723 673.999C473.534 668.572 463.828 653.785 471.467 648.157Z" fill="#9E381D"/>
<path d="M497.311 633.8C497.311 649.104 497.311 664.437 497.311 679.742C492.688 667.51 492.429 645.831 497.311 633.8Z" fill="#635746"/>
<path d="M646.633 645.286C653.323 645.286 660.043 645.286 666.734 645.286C666.475 642.558 663.115 641.897 660.99 642.414C656.194 642.414 651.427 642.414 646.632 642.414C646.632 642.414 646.432 645.257 646.633 645.286Z" fill="#A39172"/>
<path d="M571.972 662.514C594.284 671.3 621.449 670.094 643.761 662.514C625.441 679.253 588.972 683.446 571.972 662.514Z" fill="#DFA376"/>
<path d="M784.468 665.385C805.315 666.562 835.668 667.337 856.257 665.385C833.974 676.038 806.665 677.157 784.468 665.385Z" fill="#DC9B6E"/>
<path d="M979.734 673.999C986.367 690.279 980.738 707.852 973.99 722.812C1000.67 718.045 1002.79 680.747 988.348 662.514C982.749 663.748 982.576 670.18 979.734 673.999Z" fill="#A64727"/>
<path d="M482.953 671.128C487.375 677.674 487.892 693.495 482.953 699.841C482.953 690.279 482.953 680.689 482.953 671.128Z" fill="black"/>
<path d="M761.495 719.94C761.495 725.683 761.495 731.426 761.495 737.168C734.617 720.888 704.035 746.299 675.348 734.297C659.871 741.217 661.621 715.949 660.989 708.455C651.858 717.643 645.712 730.478 652.374 742.911C675.835 729.818 697.429 771.337 719.311 746.672C735.88 734.527 782.86 756.32 761.495 719.94Z" fill="#DEA276"/>
<path d="M646.633 748.654C670.179 763.183 699.441 806.511 729.19 779.521C745.788 757.785 803.075 743.313 767.238 711.326C792.135 743.026 751.041 755.258 726.145 756.378C699.784 773.634 673.482 749.831 646.633 748.654Z" fill="#E0A579"/>
<path d="M500.182 719.94C498.402 730.22 504.834 738.317 503.054 748.654C499.436 741.648 493.262 727.09 500.182 719.94Z" fill="black"/>
<path d="M850.514 811.823C875.755 770.189 824.928 744.777 793.082 734.297C803.592 747.505 816.256 761.517 832.566 766.6C852.036 774.524 849.537 797.581 850.514 811.823Z" fill="#E0A275"/>
<path d="M580.587 808.952C564.477 776.161 594.973 753.908 620.789 742.911C608.872 765.853 576.567 780.009 580.587 808.952Z" fill="#E0A275"/>
<path d="M597.816 797.466C608.211 807.057 626.617 803.496 638.017 808.952C650.939 808.234 663.258 809.153 675.348 811.823C679.167 807.602 691.83 806.913 695.449 811.823C701.996 816.245 717.818 816.762 724.164 811.823C727.983 807.602 740.647 806.913 744.265 811.823C760.604 807.602 778.58 809.182 795.953 808.952C803.563 804.157 815.509 806.138 824.67 803.209C824.756 794.078 787.77 803.898 773.039 800.28C755.609 794.538 734.56 798.931 718.422 803.209C712.794 807.574 698.005 808.148 692.578 803.209C661.651 795.629 625.182 807.66 597.816 797.466Z" fill="#95503A"/>
<path d="M655.247 840.537C656.109 836.947 660.502 835.627 660.99 831.923C651.169 827.443 634.571 823.739 638.017 808.952C626.617 803.496 608.211 807.057 597.816 797.466C607.235 812.512 635.692 829.31 655.247 840.537Z" fill="#2D1F16"/>
<path d="M692.578 803.209C701.192 803.209 709.807 803.209 718.422 803.209C712.794 807.574 698.005 808.148 692.578 803.209Z" fill="#7E1A0D"/>
<path d="M795.953 808.952C792.565 824.055 774.244 828.391 761.495 831.923C762.184 836.718 769.679 832.411 770.11 837.665C789.809 829.97 809.852 818.628 824.67 803.209C815.509 806.138 803.563 804.157 795.953 808.952Z" fill="#2A1D15"/>
<path d="M660.99 831.923C691.543 846.911 730.482 845.906 761.495 831.923C774.244 828.391 792.565 824.055 795.953 808.952C778.58 809.182 760.604 807.602 744.265 811.823C737.574 811.823 730.855 811.823 724.164 811.823C717.818 816.762 701.996 816.245 695.449 811.823C688.758 811.823 682.038 811.823 675.348 811.823C663.258 809.153 650.939 808.234 638.017 808.952C634.571 823.739 651.169 827.443 660.99 831.923Z" fill="#F5EDDA"/>
<path d="M695.449 811.823C688.758 811.823 682.038 811.823 675.348 811.823C679.167 807.602 691.83 806.913 695.449 811.823Z" fill="#801B08"/>
<path d="M744.265 811.823C737.574 811.823 730.855 811.823 724.164 811.823C727.983 807.602 740.647 806.913 744.265 811.823Z" fill="#7F1807"/>
<path d="M655.247 840.537C670.179 845.045 685.255 848.749 701.192 849.151C707.883 849.151 714.603 849.151 721.293 849.151C738.609 850.069 756.154 845.418 770.11 837.665C769.679 832.411 762.184 836.718 761.495 831.923C730.482 845.906 691.543 846.911 660.99 831.923C660.502 835.627 656.109 836.947 655.247 840.537Z" fill="#7F3C2C"/>
<path d="M701.192 849.151C707.883 849.151 714.603 849.151 721.293 849.151C717.474 853.371 704.811 854.061 701.192 849.151Z" fill="#AE8164"/>
<path d="M666.734 869.25C691.544 866.379 725.974 873.528 752.881 866.379C733.756 899.37 690.682 891.015 666.734 869.25Z" fill="#DEA073"/>
<path d="M930.917 889.349C937.206 884.468 932.181 873.614 933.789 866.379C927.5 871.26 932.525 882.114 930.917 889.349Z" fill="#9D896E"/>
<path d="M732.779 989.846C725.284 994.325 708.486 994.785 701.192 989.846C653.983 990.937 619.008 958.003 586.329 926.677C586.329 930.496 586.329 934.343 586.329 938.162C626.617 988.209 678.219 1064.04 753.081 1053.22C825.674 1045.29 874.232 979.94 916.559 926.677C913.774 910.396 920.895 891.187 916.559 877.864C869.523 932.965 806.061 984.075 732.779 989.846Z" fill="#E2AA7F"/>
<path d="M606.43 923.805C654.041 986.314 753.627 991.77 813.183 946.776C819.299 940.373 822.085 927.653 816.055 920.934C779.701 959.927 716.239 966.416 666.762 949.619C640.459 954.529 626.302 913.21 606.43 923.805Z" fill="#CC8F6B"/>
<path d="M919.431 926.677C919.431 932.419 919.431 938.162 919.431 943.905C925.806 942.268 921.642 913.382 919.431 926.677Z" fill="black"/>
<path d="M586.329 938.162C584.319 948.499 589.804 956.941 589.201 966.875C587.047 981.089 593.192 993.091 592.073 1007.07C600.658 1049.86 637.472 1084.17 674.687 1105.36C692.434 1125.37 721.006 1086.35 735.651 1116.19C778.293 1101.66 822.372 1086.9 858.467 1058.1C892.381 1030.79 933.731 991.11 919.431 943.905C919.431 938.162 919.431 932.419 919.431 926.677C919.431 926.677 917.191 925.959 916.559 926.677C874.232 979.94 825.674 1045.29 753.081 1053.22C678.219 1064.04 626.617 988.209 586.329 938.162Z" fill="#F1CAA2"/>
<path d="M574.843 946.776C579.524 950.136 579.38 972.991 574.843 969.747C574.843 962.08 574.843 954.443 574.843 946.776Z" fill="black"/>
<path d="M655.247 1308.56C857.29 1348.71 1068.29 1242.01 1166.39 1064.5C1092.93 1023.93 1008.91 1004.69 939.532 958.261C928.304 1054.05 825.042 1107.4 741.394 1127.67C758.767 1190.81 715.98 1252.17 738.522 1311.44C712.161 1308.42 715.205 1262.02 724.193 1242.55C731.831 1214.27 729.821 1183.69 729.908 1153.51C736.081 1121.27 714.602 1104.58 687.466 1122.56C665.527 1128.62 640.975 1137.52 628.742 1158.59C599.883 1207.78 637.587 1270.69 695.449 1262.62C698.521 1272.9 696.597 1284.39 701.192 1294.21C685.858 1297.8 666.532 1297.54 655.247 1308.56ZM709.807 1124.8C734.359 1159.83 727.18 1214.38 709.089 1250.42C672.362 1270.84 614.815 1239.16 623.66 1193.71C620.989 1147.6 672.792 1128.62 709.807 1124.8Z" fill="#2C2623"/>
<path d="M589.201 966.875C587.047 981.089 593.192 993.091 592.073 1007.07C587.679 996.479 582.338 977.758 589.201 966.875Z" fill="#010000"/>
<path d="M327.889 1087.47C400.396 1200.4 520.858 1281.8 649.504 1305.69C649.073 1300.44 641.578 1304.75 640.889 1299.95C652.203 1284.56 679.684 1294.44 686.834 1276.98C652.519 1268.25 610.364 1252.69 606.43 1210.94C601.951 1171.92 620.415 1127.24 660.99 1119.06C614.528 1087.73 580.96 1041.3 569.1 986.975C516.235 1012.96 458.947 1033.69 404.502 1057.84C377.768 1062.06 353.158 1097.32 327.889 1087.47Z" fill="#2B2523"/>
<path d="M701.192 989.846C711.731 989.846 722.24 989.846 732.779 989.846C725.284 994.325 708.486 994.785 701.192 989.846Z" fill="#745D45"/>
<path d="M709.807 1124.8C672.792 1128.62 620.989 1147.6 623.66 1193.71C614.815 1239.16 672.362 1270.84 709.089 1250.42C727.18 1214.38 734.359 1159.83 709.807 1124.8ZM704.063 1133.41C731.946 1170.11 718.967 1284.16 652.145 1239.88C598.849 1203.93 648.527 1124.6 704.063 1133.41Z" fill="#2D1C10"/>
<path d="M652.145 1239.88C598.849 1203.93 648.527 1124.6 704.063 1133.41C731.946 1170.11 718.967 1284.16 652.145 1239.88Z" fill="#2E2A26"/>
<path d="M718.421 188.743C700.445 193.452 673.022 193.595 655.247 188.743M718.421 188.743C745.931 193.308 773.498 197.759 798.825 208.842C788.229 196.955 773.412 188.57 758.623 183C828.029 188.226 904.585 231.841 939.532 297.854C948.146 285.277 932.008 264.718 942.403 251.912C957.307 270.605 969.109 291.939 973.99 315.082C985.304 313.014 994.379 319.36 1005.58 317.953C1002.45 324.844 994.091 325.619 988.348 329.438C1009.34 344.312 1032.48 358.812 1042.91 383.994C1034.93 383.247 1028.87 375.983 1019.94 378.251C1027.8 393.326 1037.25 407.165 1040.04 424.192C1042.13 431.687 1043.91 438.951 1042.91 447.163M718.421 188.743C713.626 188.743 708.859 188.742 704.063 188.742M655.247 188.743C601.175 192.935 547.592 211.398 505.926 243.298C512.042 252.372 525.395 236.55 531.77 246.169C468.394 274.51 415.127 339.459 411.164 409.836M655.247 188.743C659.066 188.743 662.914 188.742 666.733 188.742M411.164 409.836C411.164 415.578 411.164 421.321 411.164 427.064C414.753 426.202 416.074 421.809 419.779 421.321M411.164 409.836C404.875 414.717 409.9 425.571 408.292 432.806C413.116 430.653 417.022 425.829 419.779 421.321M419.779 421.321C424.517 423.274 423.77 433.553 419.779 435.678C419.233 436.884 419.779 439.985 419.779 441.42M419.779 441.42C424.402 453.652 424.66 475.331 419.779 487.362M419.779 441.42C419.779 456.725 419.779 472.058 419.779 487.362M419.779 487.362C414.954 531.954 457.425 568.506 442.751 610.829M442.751 610.829C444.532 621.597 444.13 642.472 439.88 653.9M442.751 610.829C437.898 624.239 440.511 639.428 439.88 653.9M439.88 653.9C451.825 696.625 445.68 762.293 494.439 780.238C497.627 811.881 512.731 841.254 531.109 867.039C551.153 890.268 575.446 913.44 574.843 946.776M574.843 946.776C579.524 950.136 579.38 972.991 574.843 969.747M574.843 946.776C574.843 954.443 574.843 962.08 574.843 969.747M574.843 969.747C491.855 1007.65 404.071 1034.47 325.017 1081.73C324.759 1084.28 327.515 1085.17 327.889 1087.47M327.889 1087.47C353.158 1097.32 377.768 1062.06 404.502 1057.84C458.947 1033.69 516.235 1012.96 569.1 986.975C580.96 1041.3 614.528 1087.73 660.99 1119.06C620.415 1127.24 601.951 1171.92 606.43 1210.94C610.364 1252.69 652.519 1268.25 686.834 1276.98C679.684 1294.44 652.203 1284.56 640.889 1299.95C641.578 1304.75 649.073 1300.44 649.504 1305.69M327.889 1087.47C400.396 1200.4 520.858 1281.8 649.504 1305.69M649.504 1305.69C649.762 1308.42 653.122 1309.08 655.247 1308.56M655.247 1308.56C666.532 1297.54 685.858 1297.8 701.192 1294.21C696.597 1284.39 698.521 1272.9 695.449 1262.62C637.587 1270.69 599.883 1207.78 628.742 1158.59C640.975 1137.52 665.527 1128.62 687.466 1122.56C714.602 1104.58 736.081 1121.27 729.908 1153.51C729.821 1183.69 731.831 1214.27 724.193 1242.55C715.205 1262.02 712.161 1308.42 738.522 1311.44C715.98 1252.17 758.767 1190.81 741.394 1127.67C825.042 1107.4 928.304 1054.05 939.532 958.261C1008.91 1004.69 1092.93 1023.93 1166.39 1064.5M655.247 1308.56C857.29 1348.71 1068.29 1242.01 1166.39 1064.5M1166.39 1064.5C1169.86 1060.94 1174.68 1055.77 1175 1050.14C1095.14 1007.99 1005.09 986.085 930.917 935.291C930.917 919.986 930.917 904.654 930.917 889.349M930.917 889.349C932.525 882.114 927.5 871.26 933.789 866.379M930.917 889.349C937.206 884.468 932.181 873.614 933.789 866.379M933.789 866.379C940.565 844.47 963.222 825.749 968.19 800.28C970.66 772.17 1006.12 774.266 1016.35 747.936C1028.44 722.582 1034.49 695.678 1040.04 668.256M1040.04 668.256C1035.3 651.976 1036.3 625.961 1037.16 610.829M1040.04 668.256C1038.89 649.191 1042.79 628.747 1037.16 610.829M1037.16 610.829C1033.32 603.077 1033.06 592.797 1022.81 590.73C1026.02 578.67 1024.64 565.376 1028.55 553.403M1028.55 553.403C1022.81 545.334 1028.52 529.886 1031.42 521.818M1028.55 553.403C1028.46 542.52 1033.37 533.131 1031.42 521.818M1031.42 521.818C1036.5 507.605 1033.49 491.181 1034.29 475.877C1039.32 480.7 1044.52 482.595 1042.91 473.005M1042.91 473.005C1042.91 464.391 1042.91 455.777 1042.91 447.163M1042.91 473.005C1047.85 467.578 1047.27 452.791 1042.91 447.163M706.935 203.099C746.476 210.622 794.03 212.517 824.669 243.298M706.935 203.099C694.903 198.218 673.223 198.477 660.99 203.099M706.935 203.099C691.63 203.099 676.295 203.099 660.99 203.099M824.669 243.298C833.025 245.452 837.62 253.664 844.77 257.655C841.899 245.48 827.024 238.532 824.669 226.07M824.669 243.298C770.368 223.802 707.94 214.01 649.504 223.199C668.341 228.913 688.04 237.527 704.063 249.041C596.207 238.589 490.678 282.722 434.136 375.38M824.669 226.07C821.884 220.758 818.639 215.102 813.183 211.713C851.978 224.319 887.556 251.682 910.816 286.368M824.669 226.07C855.51 231.554 881.986 268.279 910.816 286.368M910.816 286.368C921.613 300.093 928.936 317.35 930.917 335.181M930.917 335.181C937.723 338.138 929.596 349.652 936.66 352.409C940.364 335.267 954.435 322.002 953.89 303.596C960.666 313.531 959.748 328.232 959.633 340.924C980.854 339.201 998.054 352.208 1014.19 363.894C1006.84 373.743 992.397 358.094 985.477 366.766C1012.73 380.548 1026.4 417.904 1022.81 444.292C1021.63 435.592 1012.07 429.189 1005.58 424.192C1015.31 454.227 1022.49 490.721 1014.19 521.818C1010.46 511.51 1009.31 500.599 1005.58 490.233C997.451 499.623 1008.05 518.372 999.835 527.561C991.478 523.167 986.453 497.986 979.734 516.075C971.32 498.072 968.535 475.561 953.89 461.52C964.227 497.584 967.3 535.658 971.119 573.502C948.319 520.985 921.527 461.663 939.532 401.222C929.108 404.667 919.862 411.673 907.945 409.836C911.333 393.182 920.35 378.94 928.045 363.894C886.638 365.646 846.608 362.459 807.44 355.28C813.212 363.291 824.124 366.852 833.284 369.637C784.238 386.492 729.563 364.21 681.091 355.28C696.483 366.708 715.722 372.135 732.779 381.122C675.089 403.548 620.759 363.263 563.357 363.894M930.917 335.181C914.463 321.341 898.64 301.128 879.229 289.241C885.115 305.579 898.468 320.136 899.33 338.053C850.8 317.064 814.13 269.945 761.495 257.656C790.756 276.147 818.897 303.109 841.898 329.439C773.871 338.714 711.845 303.282 649.504 303.597C675.549 311.034 700.33 326.31 721.293 343.796C667.365 327.602 618.548 291.509 557.614 297.855C585.841 314.049 619.467 328.262 649.504 343.796C597.04 341.643 535.273 321.141 480.081 340.925C506.729 346.955 539.781 347.499 563.357 363.894M563.357 363.894C553.852 367.225 543.974 368.603 534.641 372.508M534.641 372.508C529.645 384.482 555.403 374.576 562.409 379.199C573.034 382.443 586.387 382.816 594.944 389.736C549.2 405.184 504.662 423.187 465.724 452.906C480.455 455.921 500.671 446.876 517.412 444.292C506.586 469.818 492.946 494.598 485.825 521.818C495.502 515.472 497.397 501.058 508.797 495.976C493.98 534.911 487.576 578.125 474.338 616.572C457.769 580.164 454.783 537.783 451.366 498.847C449.643 508.495 446.111 519.349 442.751 527.561C437.64 509.213 434.797 487.735 434.136 467.263M534.641 372.508C494.985 398.724 451.854 436.339 439.879 484.492C432.815 481.735 440.942 470.22 434.136 467.263M434.136 467.263C436.434 432.519 440.598 395.938 465.724 369.637C451.079 370.412 439.363 380.835 428.393 389.736C430.001 385.142 429.829 378.165 434.136 375.38M434.136 375.38C463.34 289.383 554.082 238.331 640.889 234.684C613.839 228.224 582.855 231.066 557.614 228.941C590.579 216.537 626.732 207.751 660.99 203.099M896.458 398.35C893.271 408.831 885.862 418.105 879.229 427.064C887.844 427.064 896.458 427.064 905.073 427.064M896.458 398.35C901.11 394.503 903.924 387.181 905.073 381.122C862.114 385.946 816.313 399.872 772.981 389.736M896.458 398.35C822.918 405.557 747.825 407.137 675.347 418.45C614.671 400.963 561.518 450.408 528.897 498.847C520.082 494.655 532.2 482.595 526.027 478.748M905.073 427.064C909.553 428.241 912.797 425.743 916.559 424.192C916.502 516.65 973.445 595.267 968.247 688.356C972.698 683.905 973.502 676.382 979.734 673.999M905.073 427.064C894.333 491.812 934.019 549.383 941.456 611.777C953.459 679.282 938.786 747.218 920.35 809.871C905.562 858.109 852.725 904.309 816.055 920.934M979.734 673.999C982.576 670.18 982.749 663.748 988.348 662.514M979.734 673.999C986.367 690.279 980.738 707.852 973.99 722.812C1000.67 718.045 1002.79 680.747 988.348 662.514M988.348 662.514C993.603 655.192 994.292 644.051 1002.71 639.543M1002.71 639.543C1003.85 633.484 1006.67 626.162 1011.32 622.315M1002.71 639.543C1012.81 653.813 1008.22 673.798 1014.19 688.356C1017.58 666.361 1018.24 643.477 1011.32 622.315M1011.32 622.315C1009.8 615.251 1012.99 607.585 1019.94 605.087C1024.82 608.791 1019.91 617.06 1025.68 619.443M1025.68 619.443C1030.33 633.57 1030.53 657.202 1025.68 671.128M1025.68 619.443C1025.68 636.671 1025.68 653.9 1025.68 671.128M1025.68 671.128C1021.17 704.464 1012.99 741.131 984.816 762.35C958.656 774.065 968.764 737.771 962.504 725.683C953.488 819.633 897.435 903.62 813.183 946.776M813.183 946.776C753.627 991.77 654.041 986.314 606.43 923.805M813.183 946.776C819.299 940.373 822.085 927.653 816.055 920.934M606.43 923.805C550.837 883.233 509.716 817.48 503.054 748.654M606.43 923.805C626.302 913.21 640.459 954.529 666.762 949.619C716.239 966.416 779.701 959.927 816.055 920.934M503.054 748.654C499.436 741.648 493.262 727.09 500.182 719.94M503.054 748.654C504.834 738.317 498.402 730.22 500.182 719.94M500.182 719.94C495.502 707.565 497.856 693.179 497.311 679.742M497.311 679.742C492.688 667.51 492.429 645.831 497.311 633.8M497.311 679.742C497.311 664.437 497.311 649.104 497.311 633.8M497.311 633.8C500.096 580.422 511.554 529.111 526.027 478.748M526.027 478.748C548.827 429.878 603.185 377.504 660.99 401.222M660.99 401.222C671.328 396.656 691.055 396.312 701.192 401.222M660.99 401.222C674.4 401.222 687.782 401.222 701.192 401.222M701.192 401.222C716.928 399.872 733.813 396.139 747.137 389.736M747.137 389.736C752.794 381.467 766.319 385.975 772.981 389.736M747.137 389.736C756.039 385.315 763.218 391.172 772.981 389.736M462.852 630.929C466.844 635.265 467.734 642.845 471.467 648.157M462.852 630.929C463.828 623.607 458.057 618.324 459.981 610.829C445.106 630.958 454.754 668.285 460.009 694.07C465.264 718.218 467.82 750.75 491.568 763.01C486.6 742.566 486.543 720.658 482.953 699.841M462.852 630.929C461.761 645.774 463.799 659.958 465.723 673.999C473.534 668.572 463.828 653.785 471.467 648.157M471.467 648.157C476.865 654.072 477.468 665.356 482.953 671.128M482.953 671.128C487.375 677.674 487.892 693.495 482.953 699.841M482.953 671.128C482.953 680.689 482.953 690.279 482.953 699.841M916.559 926.677C917.191 925.959 919.431 926.677 919.431 926.677M916.559 926.677C913.774 910.396 920.895 891.187 916.559 877.864C869.523 932.965 806.061 984.075 732.779 989.846M916.559 926.677C874.232 979.94 825.674 1045.29 753.081 1053.22C678.219 1064.04 626.617 988.209 586.329 938.162M919.431 926.677C921.642 913.382 925.806 942.268 919.431 943.905M919.431 926.677C919.431 932.419 919.431 938.162 919.431 943.905M919.431 943.905C933.731 991.11 892.381 1030.79 858.467 1058.1C822.372 1086.9 778.293 1101.66 735.651 1116.19C721.006 1086.35 692.434 1125.37 674.687 1105.36C637.472 1084.17 600.658 1049.86 592.073 1007.07M592.073 1007.07C587.679 996.479 582.338 977.758 589.201 966.875M592.073 1007.07C593.192 993.091 587.047 981.089 589.201 966.875M589.201 966.875C589.804 956.941 584.319 948.499 586.329 938.162M586.329 938.162C586.329 934.343 586.329 930.496 586.329 926.677C619.008 958.003 653.983 990.937 701.192 989.846M701.192 989.846C711.731 989.846 722.24 989.846 732.779 989.846M701.192 989.846C708.486 994.785 725.284 994.325 732.779 989.846M666.733 188.742C679.167 188.742 691.629 188.742 704.063 188.742M666.733 188.742C676.123 184.206 694.874 183.832 704.063 188.742M862 582.116C865.963 586.107 873.659 585.82 879.229 587.859C876.444 596.616 864.9 600.32 864.872 607.958M862 582.116C879.258 580.537 893.07 591.477 907.945 596.473C890.055 534.021 769.794 531.523 755.752 593.601M862 582.116C825.244 580.537 789.177 582.317 755.752 593.601M864.872 607.958C865.762 613.299 882.532 621.511 870.615 622.315M864.872 607.958C835.467 593.4 790.958 590.7 770.11 622.314C797.275 601.037 845.689 592.367 870.615 622.315M870.615 622.315C871.045 623.607 869.897 627.282 870.615 628.057M870.615 628.057C874.29 631.388 879.631 632.68 882.101 636.671C873.486 636.671 864.872 636.671 856.257 636.671M870.615 628.057C839.114 598.569 786.851 601.986 764.367 642.414M856.257 636.671C851.863 639.916 846.35 639.284 841.899 642.414M856.257 636.671C858.353 628.948 851.001 625.53 844.77 625.186C846.321 631.704 840.406 636.011 841.899 642.414M841.899 642.414C828.69 646.434 815.423 649.966 801.697 645.286M801.697 645.286C790.297 635.58 774.532 651.89 764.367 642.414M801.697 645.286C797.562 639.399 799.026 632.106 798.825 625.186C790.153 626.219 779.815 633.111 778.724 642.414C773.928 642.414 769.162 642.414 764.367 642.414M764.367 642.414C729.764 649.248 736.254 606.838 755.752 593.601M663.862 593.601C675.779 600.406 678.162 612.983 675.348 625.186C678.737 619.673 681.206 613.73 681.091 625.186M663.862 593.601C651.198 538.213 534.355 542.492 528.899 605.087C534.441 603.737 536.623 595.181 543.256 596.473M663.862 593.601C652.519 590.96 640.458 591.276 629.403 587.859M681.091 625.186C683.848 645.199 681.551 665.213 678.249 685.513C679.368 701.937 655.018 722.525 675.348 734.297M681.091 625.186C676.037 626.622 679.024 632.996 678.22 636.671M675.348 734.297C704.035 746.299 734.617 720.888 761.495 737.168C761.495 731.426 761.495 725.683 761.495 719.94M675.348 734.297C659.871 741.217 661.621 715.949 660.989 708.455C651.858 717.643 645.712 730.478 652.374 742.911C675.835 729.818 697.429 771.337 719.311 746.672C735.88 734.527 782.86 756.32 761.495 719.94M761.495 719.94C762.615 712.102 753.082 710.264 750.009 705.584C756.7 704.32 761.524 709.144 767.238 711.326M767.238 711.326C803.075 743.313 745.788 757.785 729.19 779.521C699.441 806.511 670.179 763.183 646.633 748.654M767.238 711.326C792.135 743.026 751.041 755.258 726.145 756.378C699.784 773.634 673.482 749.831 646.633 748.654M646.633 748.654C633.021 729.387 652.491 713.939 663.202 699.181C673.223 680.431 677.961 658.695 678.22 636.671M678.22 636.671C674.516 639.198 673.338 646.836 666.734 645.286M666.734 645.286C660.043 645.286 653.323 645.286 646.633 645.286M666.734 645.286C666.475 642.558 663.115 641.897 660.99 642.414M646.633 645.286C642.957 644.482 636.582 647.468 635.146 642.414M646.633 645.286C646.432 645.257 646.632 642.414 646.632 642.414M635.146 642.414C624.665 651.43 607.034 649.564 594.945 645.286M635.146 642.414C635.003 637.361 639.539 633.599 638.017 628.057C643.617 630.641 648.01 635.867 646.632 642.414M594.945 645.286C588.053 644.338 578.088 643.993 574.844 636.671M594.945 645.286C592.906 639.715 593.192 632.019 589.201 628.057C583.199 627.77 578.921 633.771 574.844 636.671M574.844 636.671C570.077 641.409 556.006 647.123 548.999 642.414C571.398 627.598 593.021 605.632 623.66 610.829M623.66 610.829C622.942 609.997 623.66 607.958 623.66 607.958M623.66 610.829C637.444 617.52 651.571 628.775 660.99 642.414M623.66 607.958C612.174 607.958 600.688 607.958 589.201 607.958M623.66 607.958C635.864 610.944 646.46 618.955 655.247 625.186C641.09 595.181 594.485 596.674 569.1 610.829M623.66 607.958C615.419 603.048 597.644 603.45 589.201 607.958M589.201 607.958C573.35 610.456 563.903 624.382 551.871 630.929C557.126 623.951 560.629 614.763 569.1 610.829M569.1 610.829C558.648 616.084 544.204 618.008 531.77 607.958C533.177 601.584 542.022 602.962 543.256 596.473M543.256 596.473C550.292 588.691 563.27 593.199 571.971 587.859M692.578 803.209C701.192 803.209 709.807 803.209 718.422 803.209M692.578 803.209C661.651 795.629 625.182 807.66 597.816 797.466M692.578 803.209C698.005 808.148 712.794 807.574 718.422 803.209M718.422 803.209C734.56 798.931 755.609 794.538 773.039 800.28C787.77 803.898 824.756 794.078 824.67 803.209M824.67 803.209C809.852 818.628 789.809 829.97 770.11 837.665M824.67 803.209C815.509 806.138 803.563 804.157 795.953 808.952M770.11 837.665C756.154 845.418 738.609 850.069 721.293 849.151M770.11 837.665C769.679 832.411 762.184 836.718 761.495 831.923M721.293 849.151C717.474 853.371 704.811 854.061 701.192 849.151M721.293 849.151C714.603 849.151 707.883 849.151 701.192 849.151M701.192 849.151C685.255 848.749 670.179 845.045 655.247 840.537M655.247 840.537C635.692 829.31 607.235 812.512 597.816 797.466M655.247 840.537C656.109 836.947 660.502 835.627 660.99 831.923M597.816 797.466C608.211 807.057 626.617 803.496 638.017 808.952M571.971 587.859C588.023 583.178 613.552 583.006 629.403 587.859M571.971 587.859C591.125 587.859 610.249 587.859 629.403 587.859M660.99 642.414C656.194 642.414 651.427 642.414 646.632 642.414M638.017 808.952C650.939 808.234 663.258 809.153 675.348 811.823M638.017 808.952C634.571 823.739 651.169 827.443 660.99 831.923M675.348 811.823C679.167 807.602 691.83 806.913 695.449 811.823M675.348 811.823C682.038 811.823 688.758 811.823 695.449 811.823M695.449 811.823C701.996 816.245 717.818 816.762 724.164 811.823M724.164 811.823C727.983 807.602 740.647 806.913 744.265 811.823M724.164 811.823C730.855 811.823 737.574 811.823 744.265 811.823M744.265 811.823C760.604 807.602 778.58 809.182 795.953 808.952M795.953 808.952C792.565 824.055 774.244 828.391 761.495 831.923M660.99 831.923C691.543 846.911 730.482 845.906 761.495 831.923M752.88 297.855C727.61 302.248 700.991 281 675.348 274.884C700.445 270.606 727.064 292.169 752.88 297.855ZM643.761 662.514C625.441 679.253 588.972 683.446 571.972 662.514C594.284 671.3 621.449 670.094 643.761 662.514ZM856.257 665.385C833.974 676.038 806.665 677.157 784.468 665.385C805.315 666.562 835.668 667.337 856.257 665.385ZM850.514 811.823C849.537 797.581 852.036 774.524 832.566 766.6C816.256 761.517 803.592 747.505 793.082 734.297C824.928 744.777 875.755 770.189 850.514 811.823ZM620.789 742.911C608.872 765.853 576.567 780.009 580.587 808.952C564.477 776.161 594.973 753.908 620.789 742.911ZM752.881 866.379C733.756 899.37 690.682 891.015 666.734 869.25C691.544 866.379 725.974 873.528 752.881 866.379ZM818.926 630.928C794.489 634.977 820.218 606.436 818.926 630.928ZM606.43 622.314C583.343 630.612 618.347 644.481 606.43 622.314ZM709.807 1124.8C734.359 1159.83 727.18 1214.38 709.089 1250.42C672.362 1270.84 614.815 1239.16 623.66 1193.71C620.989 1147.6 672.792 1128.62 709.807 1124.8ZM704.063 1133.41C731.946 1170.11 718.967 1284.16 652.145 1239.88C598.849 1203.93 648.527 1124.6 704.063 1133.41Z" stroke="black"/>
</g>
<defs>
<clipPath id="clip0_4_1143">
<rect width="1500" height="1500" fill="white"/>
</clipPath>
</defs>
</svg>
