<svg width="1500" height="1500" viewBox="0 0 1500 1500" fill="none" xmlns="http://www.w3.org/2000/svg">
<g clip-path="url(#clip0_8_36)">
<mask id="mask0_8_36" style="mask-type:alpha" maskUnits="userSpaceOnUse" x="0" y="0" width="1500" height="1500">
<circle cx="750" cy="750" r="750" fill="#D9D9D9"/>
</mask>
<g mask="url(#mask0_8_36)">
<circle cx="740.469" cy="778.595" r="1010.37" fill="#FFFDFB"/>
<circle cx="750" cy="750" r="727.5" stroke="url(#paint0_linear_8_36)" stroke-width="45" stroke-dasharray="40 40"/>
<path d="M711.617 397.102C726.054 391.431 743.005 388.737 762.467 389.02C773.222 389.177 784.735 389.997 797.005 391.483C809.275 392.968 821.771 396.417 834.489 401.829C847.218 406.588 859.375 414.933 870.962 426.862L870.802 436.661C866.193 436.594 861.551 438.487 856.878 442.339C848.043 450.051 839.432 459.728 831.045 471.367C823.17 483.014 814.978 498.25 806.473 517.075C798.48 535.908 789.378 559.953 779.165 589.209C768.962 617.81 757.554 641.82 744.941 661.239C732.317 681.311 717.714 697.108 701.132 708.629C684.55 720.149 664.948 728.357 642.328 733.255C619.707 738.154 604.093 740.139 573.876 739.699V759.855C604.093 759.416 629.795 761.845 652.415 766.743C675.036 771.641 694.639 779.852 711.22 791.372C727.802 802.893 742.405 818.69 755.029 838.762C767.642 858.18 779.049 882.19 789.251 910.791C799.464 940.046 808.568 964.092 816.561 982.925C825.066 1001.75 833.256 1016.99 841.131 1028.63C849.518 1040.27 858.13 1049.95 866.966 1057.66C871.639 1061.51 876.281 1063.41 880.891 1063.34L881.051 1073.14C869.464 1085.07 857.305 1093.41 844.576 1098.17C831.858 1103.58 819.363 1107.03 807.093 1108.52C794.823 1110 783.309 1110.82 772.554 1110.98C753.092 1111.26 736.142 1108.57 721.705 1102.9C707.279 1097.88 694.07 1088.92 682.076 1076.03C670.071 1062.48 657.735 1044.37 645.068 1021.68C638.196 1008.71 631.292 993.785 624.355 976.897C617.419 960.009 610.188 940.838 602.665 919.386C595.643 897.272 588.331 873.201 580.733 847.176C573.998 821.852 565.209 795.113 557.763 765.744H530.02V738.753H546.437C554.083 707.863 563.621 679.241 570.647 652.824C578.245 626.798 585.556 602.728 592.578 580.614C600.101 559.161 607.331 539.989 614.267 523.101C621.204 506.214 628.11 491.286 634.982 478.318C647.649 455.633 659.983 437.516 671.988 423.969C683.981 411.076 697.191 402.12 711.617 397.102Z" fill="url(#paint1_linear_8_36)"/>
<path d="M529.939 520.474V1018.84C536.47 1028.43 542.952 1032.82 544.874 1034.66L545.299 1035.06C554.572 1043.6 563.052 1048.81 569.863 1051.85C576.696 1054.9 581.804 1055.76 584.336 1055.66L585.15 1055.62V1068.26H296V1055.62L296.814 1055.66C299.346 1055.76 304.454 1054.9 311.287 1051.85C318.098 1048.81 326.578 1043.6 335.851 1035.06L336.276 1034.66C336.379 1034.56 336.482 1034.45 336.584 1034.35V490.915C336.482 490.814 336.379 490.713 336.276 490.614L335.851 490.214C326.578 481.671 318.098 476.461 311.287 473.418C309.658 472.69 308.126 472.09 306.705 471.595L297.551 469.613C297.286 469.606 297.04 469.605 296.814 469.615L296 469.649V459.85H548.022L529.939 520.474Z" fill="url(#paint2_linear_8_36)"/>
<path d="M911.183 675.424C952.231 675.424 985.507 708.686 985.507 749.715C985.507 790.745 952.231 824.007 911.183 824.007C870.136 824.007 836.86 790.745 836.86 749.715C836.86 708.686 870.136 675.424 911.183 675.424Z" fill="url(#paint3_linear_8_36)"/>
<path d="M1129.68 675.424C1170.72 675.424 1204 708.686 1204 749.715C1204 790.745 1170.72 824.007 1129.68 824.007C1088.63 824.007 1055.35 790.745 1055.35 749.715C1055.35 708.686 1088.63 675.424 1129.68 675.424Z" fill="url(#paint4_linear_8_36)"/>
</g>
</g>
<defs>
<linearGradient id="paint0_linear_8_36" x1="285.5" y1="133.5" x2="1228.5" y2="1464" gradientUnits="userSpaceOnUse">
<stop stop-color="#E4B43C"/>
<stop offset="1" stop-color="#BF2927"/>
</linearGradient>
<linearGradient id="paint1_linear_8_36" x1="721.5" y1="479.5" x2="863" y2="1111" gradientUnits="userSpaceOnUse">
<stop stop-color="#DA9100"/>
<stop offset="1" stop-color="#A1025F"/>
</linearGradient>
<linearGradient id="paint2_linear_8_36" x1="721.5" y1="479.5" x2="863" y2="1111" gradientUnits="userSpaceOnUse">
<stop stop-color="#DA9100"/>
<stop offset="1" stop-color="#A1025F"/>
</linearGradient>
<linearGradient id="paint3_linear_8_36" x1="721.5" y1="479.5" x2="863" y2="1111" gradientUnits="userSpaceOnUse">
<stop stop-color="#DA9100"/>
<stop offset="1" stop-color="#A1025F"/>
</linearGradient>
<linearGradient id="paint4_linear_8_36" x1="721.5" y1="479.5" x2="863" y2="1111" gradientUnits="userSpaceOnUse">
<stop stop-color="#DA9100"/>
<stop offset="1" stop-color="#A1025F"/>
</linearGradient>
<clipPath id="clip0_8_36">
<rect width="1500" height="1500" fill="white"/>
</clipPath>
</defs>
</svg>
