<svg width="1500" height="1500" viewBox="0 0 1500 1500" fill="none" xmlns="http://www.w3.org/2000/svg">
<g clip-path="url(#clip0_4_458)">
<circle cx="750" cy="750" r="715" fill="#FFFAED" stroke="#AC8362" stroke-width="70" stroke-dasharray="50 50"/>
<path d="M1180 793.959C1180 836.182 1145.77 870.411 1103.54 870.411C1061.31 870.411 1027.08 836.182 1027.08 793.959C1027.08 751.736 1061.31 717.507 1103.54 717.507C1145.77 717.507 1180 751.736 1180 793.959Z" fill="#5A3720"/>
<path d="M973.82 793.583C973.82 835.806 939.587 870.035 897.359 870.035C855.13 870.035 820.897 835.806 820.897 793.583C820.897 751.36 855.13 717.131 897.359 717.131C939.587 717.131 973.82 751.36 973.82 793.583Z" fill="#5A3720"/>
<path d="M717.572 430.338C732.425 424.502 749.863 421.73 769.885 422.021C780.95 422.182 792.793 423.026 805.416 424.555C818.04 426.083 830.894 429.633 843.979 435.202C857.074 440.1 869.581 448.687 881.501 460.964L881.336 471.048C876.594 470.979 871.819 472.926 867.012 476.891C857.922 484.827 849.064 494.785 840.435 506.763C832.333 518.749 823.906 534.428 815.156 553.801C806.933 573.181 797.57 597.926 787.063 628.032C776.567 657.465 764.831 682.174 751.855 702.158C738.868 722.814 723.844 739.07 706.786 750.925C689.727 762.78 669.561 771.228 646.29 776.268C623.019 781.309 606.956 783.351 575.869 782.899V803.642C606.956 803.19 633.396 805.69 656.668 810.73C679.939 815.771 700.105 824.221 717.164 836.076C734.223 847.932 749.246 864.187 762.233 884.843C775.209 904.827 786.944 929.535 797.439 958.968C807.946 989.074 817.312 1013.82 825.535 1033.2C834.285 1052.57 842.71 1068.25 850.812 1080.24C859.44 1092.21 868.3 1102.17 877.389 1110.11C882.197 1114.07 886.973 1116.02 891.715 1115.95L891.88 1126.04C879.96 1138.31 867.451 1146.9 854.356 1151.8C841.272 1157.37 828.418 1160.92 815.795 1162.45C803.172 1163.97 791.326 1164.82 780.262 1164.98C760.24 1165.27 742.803 1162.5 727.951 1156.66C713.11 1151.5 699.52 1142.28 687.181 1129.01C674.831 1115.07 662.14 1096.43 649.109 1073.09C642.039 1059.74 634.936 1044.38 627.8 1027C620.664 1009.62 613.226 989.89 605.486 967.813C598.262 945.056 590.741 920.286 582.924 893.503C575.995 867.442 566.953 839.925 559.293 809.702H530.752V781.926H547.64C555.506 750.138 565.319 720.683 572.547 693.497C580.364 666.715 587.884 641.945 595.109 619.188C602.849 597.111 610.286 577.381 617.422 560.002C624.558 542.623 631.663 527.261 638.733 513.916C651.764 490.571 664.453 471.927 676.803 457.986C689.142 444.717 702.732 435.501 717.572 430.338Z" fill="#5A3720"/>
<path d="M549.272 494.911L530.668 557.298V1070.16C537.387 1080.03 544.056 1084.54 546.033 1086.44L546.471 1086.85C556.01 1095.64 564.734 1101 571.741 1104.13C578.771 1107.27 584.025 1108.15 586.63 1108.05L587.468 1108.01V1121.02H290V1108.01L290.838 1108.05C293.443 1108.15 298.697 1107.27 305.726 1104.13C312.733 1101 321.457 1095.64 330.997 1086.85L331.435 1086.44C331.541 1086.33 331.647 1086.23 331.752 1086.12V526.879C331.647 526.775 331.541 526.671 331.435 526.569L330.997 526.158C321.457 517.367 312.733 512.006 305.726 508.874C304.051 508.125 302.475 507.507 301.013 506.998L291.596 504.958C291.323 504.951 291.07 504.95 290.838 504.96L290 504.995V494.911H549.272Z" fill="#5A3720"/>
<path d="M1266 706.959C1266 749.182 1231.77 783.411 1189.54 783.411C1147.31 783.411 1113.08 749.182 1113.08 706.959C1113.08 664.736 1147.31 630.507 1189.54 630.507C1231.77 630.507 1266 664.736 1266 706.959Z" fill="#F6BA80"/>
<path d="M1059.82 706.583C1059.82 748.806 1025.59 783.035 983.359 783.035C941.13 783.035 906.897 748.806 906.897 706.583C906.897 664.36 941.13 630.131 983.359 630.131C1025.59 630.131 1059.82 664.36 1059.82 706.583Z" fill="#F6BA80"/>
<path d="M803.572 343.338C818.425 337.502 835.863 334.73 855.885 335.021C866.95 335.182 878.793 336.026 891.416 337.555C904.04 339.083 916.894 342.633 929.979 348.202C943.074 353.1 955.581 361.687 967.501 373.964L967.336 384.048C962.594 383.979 957.819 385.926 953.012 389.891C943.922 397.827 935.064 407.785 926.435 419.763C918.333 431.749 909.906 447.428 901.156 466.801C892.933 486.181 883.57 510.926 873.063 541.032C862.567 570.465 850.831 595.174 837.855 615.158C824.868 635.814 809.844 652.07 792.786 663.925C775.727 675.78 755.561 684.228 732.29 689.268C709.019 694.309 692.956 696.351 661.869 695.899V716.642C692.956 716.19 719.396 718.69 742.668 723.73C765.939 728.771 786.105 737.221 803.164 749.076C820.223 760.932 835.246 777.187 848.233 797.843C861.209 817.827 872.944 842.535 883.439 871.968C893.946 902.074 903.312 926.819 911.535 946.199C920.285 965.572 928.71 981.251 936.812 993.237C945.44 1005.21 954.3 1015.17 963.389 1023.11C968.197 1027.07 972.973 1029.02 977.715 1028.95L977.88 1039.04C965.96 1051.31 953.451 1059.9 940.356 1064.8C927.272 1070.37 914.418 1073.92 901.795 1075.45C889.172 1076.97 877.326 1077.82 866.262 1077.98C846.24 1078.27 828.803 1075.5 813.951 1069.66C799.11 1064.5 785.52 1055.28 773.181 1042.01C760.831 1028.07 748.14 1009.43 735.109 986.085C728.039 972.74 720.936 957.376 713.8 939.997C706.664 922.618 699.226 902.89 691.486 880.813C684.262 858.056 676.741 833.286 668.923 806.503C661.995 780.442 652.953 752.925 645.293 722.702H616.752V694.926H633.64C641.506 663.138 651.319 633.683 658.547 606.497C666.364 579.715 673.884 554.945 681.109 532.188C688.849 510.111 696.286 490.381 703.422 473.002C710.558 455.623 717.663 440.261 724.733 426.916C737.764 403.571 750.453 384.927 762.803 370.986C775.142 357.717 788.732 348.501 803.572 343.338Z" fill="#F6BA80"/>
<path d="M635.272 407.911L616.669 470.298V983.156C623.387 993.025 630.056 997.542 632.033 999.436L632.471 999.848C642.01 1008.64 650.734 1014 657.741 1017.13C664.771 1020.27 670.025 1021.15 672.63 1021.05L673.468 1021.01V1034.02H376V1021.01L376.838 1021.05C379.443 1021.15 384.697 1020.27 391.726 1017.13C398.733 1014 407.457 1008.64 416.997 999.848L417.435 999.436C417.541 999.334 417.647 999.229 417.752 999.125V439.879C417.647 439.775 417.541 439.671 417.435 439.569L416.997 439.158C407.457 430.367 398.733 425.006 391.726 421.874C390.051 421.125 388.475 420.507 387.013 419.998L377.596 417.958C377.323 417.951 377.07 417.95 376.838 417.96L376 417.995V407.911H635.272Z" fill="#F6BA80"/>
</g>
<defs>
<clipPath id="clip0_4_458">
<rect width="1500" height="1500" fill="white"/>
</clipPath>
</defs>
</svg>
