<svg width="1500" height="1500" viewBox="0 0 1500 1500" fill="none" xmlns="http://www.w3.org/2000/svg">
<g clip-path="url(#clip0_8_36)">
<mask id="mask0_8_36" style="mask-type:alpha" maskUnits="userSpaceOnUse" x="0" y="0" width="1500" height="1500">
<circle cx="750" cy="750" r="750" fill="#D9D9D9"/>
</mask>
<g mask="url(#mask0_8_36)">
<circle cx="740.469" cy="778.595" r="1010.37" fill="#FFF7E3"/>
<circle cx="750" cy="750" r="727.5" stroke="url(#paint0_linear_8_36)" stroke-width="45" stroke-dasharray="40 40"/>
<path d="M707.016 358.966C722.995 352.691 741.758 349.709 763.299 350.022C775.203 350.195 787.946 351.104 801.526 352.747C815.108 354.391 828.938 358.208 843.015 364.197C857.104 369.464 870.56 378.699 883.384 391.9L883.207 402.744C878.105 402.67 872.968 404.765 867.795 409.028C858.016 417.563 848.486 428.271 839.203 441.151C830.486 454.04 821.419 470.902 812.006 491.734C803.159 512.576 793.084 539.185 781.78 571.56C770.488 603.212 757.861 629.783 743.901 651.273C729.928 673.486 713.764 690.967 695.411 703.716C677.058 716.465 655.362 725.549 630.325 730.97C605.288 736.39 588.006 738.587 554.561 738.101V760.406C588.007 759.92 616.454 762.608 641.491 768.028C666.528 773.449 688.224 782.536 706.578 795.285C724.931 808.033 741.094 825.515 755.066 847.728C769.027 869.217 781.652 895.788 792.944 927.44C804.248 959.815 814.324 986.424 823.171 1007.27C832.585 1028.1 841.65 1044.96 850.366 1057.85C859.649 1070.73 869.182 1081.44 878.961 1089.97C884.134 1094.24 889.272 1096.33 894.374 1096.25L894.551 1107.1C881.726 1120.3 868.269 1129.54 854.18 1134.8C840.103 1140.79 826.273 1144.61 812.692 1146.25C799.111 1147.9 786.367 1148.8 774.463 1148.98C752.922 1149.29 734.162 1146.31 718.183 1140.03C702.216 1134.48 687.595 1124.57 674.32 1110.3C661.033 1095.31 647.378 1075.26 633.358 1050.16C625.752 1035.81 618.11 1019.28 610.433 1000.59C602.755 981.906 594.752 960.691 586.425 936.95C578.653 912.478 570.561 885.841 562.15 857.039C554.696 829.015 544.969 799.424 536.727 766.923H506.02V737.054H524.191C532.653 702.87 543.211 671.194 550.987 641.96C559.397 613.159 567.488 586.522 575.261 562.05C583.588 538.309 591.59 517.092 599.267 498.403C606.945 479.714 614.588 463.195 622.195 448.844C636.214 423.739 649.867 403.69 663.154 388.699C676.429 374.43 691.05 364.519 707.016 358.966Z" fill="url(#paint1_linear_8_36)"/>
<path d="M505.93 495.495V1047.01C513.158 1057.62 520.334 1062.48 522.461 1064.51L522.931 1064.96C533.195 1074.41 542.581 1080.17 550.119 1083.54C557.682 1086.92 563.335 1087.87 566.138 1087.75L567.039 1087.72V1101.71H247V1087.72L247.901 1087.75C250.704 1087.87 256.357 1086.92 263.92 1083.54C271.458 1080.17 280.844 1074.41 291.108 1064.96L291.578 1064.51C291.693 1064.4 291.806 1064.29 291.92 1064.18V462.784C291.806 462.672 291.693 462.561 291.578 462.451L291.108 462.008C280.844 452.554 271.459 446.789 263.92 443.421C262.117 442.615 260.422 441.951 258.849 441.404L248.717 439.21C248.423 439.202 248.151 439.202 247.901 439.212L247 439.25V428.406H525.945L505.93 495.495Z" fill="url(#paint2_linear_8_36)"/>
<path d="M927.902 666.971C973.335 666.971 1010.17 703.779 1010.17 749.185C1010.17 794.591 973.335 831.399 927.902 831.399C882.47 831.399 845.639 794.591 845.639 749.185C845.639 703.779 882.47 666.971 927.902 666.971Z" fill="url(#paint3_linear_8_36)"/>
<path d="M1169.74 666.971C1215.17 666.971 1252 703.779 1252 749.185C1252 794.591 1215.17 831.399 1169.74 831.399C1124.3 831.399 1087.47 794.591 1087.47 749.185C1087.47 703.779 1124.3 666.971 1169.74 666.971Z" fill="url(#paint4_linear_8_36)"/>
</g>
</g>
<defs>
<linearGradient id="paint0_linear_8_36" x1="285.5" y1="133.5" x2="1228.5" y2="1464" gradientUnits="userSpaceOnUse">
<stop stop-color="#E4B43C"/>
<stop offset="1" stop-color="#BF2927"/>
</linearGradient>
<linearGradient id="paint1_linear_8_36" x1="717.955" y1="450.152" x2="874.523" y2="1149.01" gradientUnits="userSpaceOnUse">
<stop stop-color="#FFAA00"/>
<stop offset="1" stop-color="#B0003E"/>
</linearGradient>
<linearGradient id="paint2_linear_8_36" x1="717.955" y1="450.152" x2="874.523" y2="1149.01" gradientUnits="userSpaceOnUse">
<stop stop-color="#FFAA00"/>
<stop offset="1" stop-color="#B0003E"/>
</linearGradient>
<linearGradient id="paint3_linear_8_36" x1="717.955" y1="450.152" x2="874.523" y2="1149.01" gradientUnits="userSpaceOnUse">
<stop stop-color="#FFAA00"/>
<stop offset="1" stop-color="#B0003E"/>
</linearGradient>
<linearGradient id="paint4_linear_8_36" x1="717.955" y1="450.152" x2="874.523" y2="1149.01" gradientUnits="userSpaceOnUse">
<stop stop-color="#FFAA00"/>
<stop offset="1" stop-color="#B0003E"/>
</linearGradient>
<clipPath id="clip0_8_36">
<rect width="1500" height="1500" fill="white"/>
</clipPath>
</defs>
</svg>
